<svg width="156" height="41" viewBox="0 0 156 41" fill="none" xmlns="http://www.w3.org/2000/svg">
<path d="M79.3046 13.5552H75.6846V27.1939H79.3046V13.5552Z" fill="white"/>
<path d="M119.631 13.5552H116.011V27.1939H119.631V13.5552Z" fill="white"/>
<path d="M96.2262 21.4203C96.8156 20.6672 97.1523 19.6632 97.1523 18.4917C97.1523 17.0693 96.7314 15.8979 95.8053 14.9774C94.9634 14.057 93.7848 13.6387 92.4378 13.6387H83.4297V27.2774H87.0498V23.1774H89.5754L93.0271 27.2774H97.4049L93.869 23.0938C94.8792 22.6754 95.6369 22.1734 96.2262 21.4203ZM93.1113 19.4958C92.8587 19.7468 92.522 19.9142 92.1852 19.9142H87.0498V16.9856H92.1852C92.522 16.9856 92.8587 17.153 93.1113 17.404C93.3638 17.655 93.448 17.9897 93.448 18.4917C93.5322 18.8264 93.3638 19.1611 93.1113 19.4958Z" fill="white"/>
<path d="M104.309 13.5552H100.688V27.1939H112.812V23.6797H104.309V13.5552Z" fill="white"/>
<path d="M136.132 22.2572H135.963L128.555 13.9735L128.302 13.7225L128.134 13.5552H124.009V27.1939H127.629V18.5756H127.797L135.543 27.1939H139.752V13.5552H136.132V22.2572Z" fill="white"/>
<path d="M156 16.9021V13.5552H143.203V27.1939H156V23.847H146.823V21.9225H153.642V18.8266H146.823V16.9021H156Z" fill="white"/>
<path d="M65.7511 13.5552H65.6669H59.437L54.8066 27.1939H58.7635L59.6895 24.1817H67.9399L68.866 27.1939H72.8228L68.1925 13.5552H65.7511ZM60.6156 21.0858L61.9626 16.9858H65.4143H65.5827L66.9297 21.0858H60.6156Z" fill="white"/>
<path d="M15.3221 40.8327L23.7408 34.7245L32.2438 35.9796L33.9276 41H39.3998L36.2006 31.2939L22.478 29.202L14.8169 35.0592L23.4041 9.28776L28.5395 24.851L34.3485 25.7714L25.8455 0H20.8785L7.32422 41L15.3221 40.8327Z" fill="white"/>
<path d="M46.9764 17.9899L45.5452 13.5552H36.1162L39.3995 23.5123L46.9764 17.9899Z" fill="white"/>
<path d="M0 17.9062L1.347 13.5552H10.8602L7.5769 23.4286L0 17.9062Z" fill="white"/>
</svg>
