<svg width="144" height="28" viewBox="0 0 144 28" fill="none" xmlns="http://www.w3.org/2000/svg">
<path d="M140.878 15.3316C140.619 15.9171 140.226 16.7245 139.761 17.4169C139.135 18.3659 137.534 19.2428 136.972 18.2884C136.748 17.9008 136.507 17.4222 136.28 16.8314C135.438 14.6445 133.919 13.1153 131.871 13.3319C131.46 13.3773 130.174 13.5966 129.551 13.6901C130.326 12.3668 132.029 10.5408 135.184 10.4259C137.232 10.351 136.839 11.391 136.806 11.5434C136.697 11.9257 136.651 12.8694 137.903 13.233C139.662 13.6286 141.461 11.6156 139.819 9.62653C138.119 7.49314 132.812 7.63484 129.783 11.1958C129.77 11.2119 129.762 11.2252 129.751 11.2413L130.615 8.7149H123.672L121.065 16.3368C120.79 16.6175 120.207 16.7672 119.865 16.8153C120.453 15.1953 119.988 13.5003 119.648 12.7624C119.309 12.0246 118.082 10.1612 115.454 9.22017C112.625 8.13476 108.829 8.67212 107.615 9.03571C106.404 9.39929 105.314 9.89387 104.343 10.5248C103.228 11.252 102.333 12.1369 101.656 13.1795C100.975 14.2221 100.638 15.3102 100.638 16.4518C100.638 17.064 100.755 17.6708 100.983 18.2777C100.405 18.6921 99.5631 18.922 99.1541 18.2857C98.9295 17.8981 98.6862 17.4195 98.459 16.8287C97.6169 14.6419 96.0395 13.2062 94.0505 13.3292C93.2672 13.3773 92.2673 13.4656 91.2568 13.6981C91.9305 12.5833 93.9703 10.5007 96.8335 10.3938C98.6194 10.3243 98.3921 11.4471 98.3921 11.4471C98.3921 11.4471 98.0259 12.8828 99.6059 13.1661C101.464 13.5351 103.191 11.6049 101.467 9.49286C99.9374 7.61612 95.3578 7.64018 92.1711 10.5836L95.2135 1.73193H88.2706L85.3058 10.3564C83.2793 7.87544 77.4753 7.60008 75.7456 9.28968C73.4706 11.5113 74.9917 13.3934 76.5985 13.1341C78.0688 12.9442 78.1651 11.7332 78.1784 11.2386C78.1945 10.5863 79.1435 10.212 81.1914 10.3778C83.8701 10.597 84.3995 12.5379 84.2177 13.527L84.199 13.5778C83.8113 13.5297 83.0735 13.4361 82.7259 13.3934C78.0635 12.8266 77.0128 14.4975 75.6868 16.8795C74.8795 18.3285 73.8288 19.9646 72.5295 21.4751C69.0969 25.4692 65.5893 25.135 65.5893 25.135L64.8301 26.3969C64.8301 26.3969 66.4074 27.2791 70.6047 26.7444C75.0612 26.175 78.4805 22.9 81.0149 18.005C82.0602 15.9893 83.028 15.3396 83.6563 15.1471L81.3999 21.7184H88.3401L90.5804 15.2033C91.0991 15.5401 91.9679 16.3689 92.2647 18.2162C92.5454 20.3683 94.0104 22.1568 97.3682 22.0071C99.4508 21.9135 101.02 21.1596 102.186 20.1919C102.453 20.4913 103.763 21.7264 105.685 22.3172C106.848 22.6942 108.182 22.8706 109.973 22.8813C113.783 22.7557 115.785 21.3869 117.208 20.2988C117.496 20.4699 117.806 20.6089 118.135 20.7159C118.461 20.8255 119.044 20.919 119.509 20.8629L119.218 21.7157H126.158L128.391 15.1953C128.904 15.5294 129.783 16.3555 130.083 18.2135C130.364 20.3656 131.826 22.1542 135.186 22.0044C141.514 21.7211 143.097 15.3583 143.097 15.3583C143.097 15.3583 142.308 14.9974 141.905 14.8317C141.509 14.6686 141.089 14.8557 140.878 15.3316ZM112.216 13.6714C111.743 14.313 111.47 15.0001 111.398 15.7273C111.356 16.4277 111.503 16.8715 111.706 17.2725C111.912 17.6735 112.211 18.005 112.599 18.2724C112.214 19.1653 111.524 19.9753 111.053 20.3977C110.583 20.8228 110.043 21.034 109.439 21.034C108.225 21.0099 107.955 18.3606 108.204 16.5614C108.348 15.6898 108.591 14.8343 108.931 13.9976C109.77 11.6476 111.473 10.3216 112.636 10.3109C113.026 10.3109 113.347 10.474 113.601 10.8002C113.858 11.129 113.994 11.669 114.018 12.4202C113.291 12.6127 112.692 13.0325 112.216 13.6714Z" fill="white"/>
<path d="M68.918 21.9057C69.7495 21.9084 70.4927 21.8068 71.1637 21.633C71.7064 21.2427 72.5138 20.5369 73.3586 19.3659C74.3451 17.9998 74.5269 17.4758 74.5269 17.4758L73.9173 17.024C73.904 17.0374 73.8933 17.0508 73.8826 17.0641C72.6501 18.342 71.2466 18.4998 71.407 17.4571C71.5647 16.4145 74.3745 8.74713 74.3745 8.74713H67.5038C67.5038 8.74713 66.5815 11.6451 65.6217 13.9389C64.6646 16.2327 63.0365 18.2404 61.6998 17.9865C61.0395 17.8073 61.4458 16.9358 61.5849 16.6096C61.7185 16.2835 64.3037 8.74446 64.3037 8.74446H57.3983C57.3983 8.74446 56.4572 11.4874 55.6178 13.8881L54.4789 14.4121C54.5618 11.9392 53.0486 9.77372 51.0222 9.00378C47.4879 7.65638 44.9723 9.72293 44.9723 9.72293C44.9723 9.72293 44.6782 9.79778 44.8145 9.37538C44.8145 9.37538 45.646 5.70211 47.4131 3.87082C49.1802 2.03953 51.1692 2.79611 50.41 4.24777C49.6534 5.69944 46.1165 6.65652 46.1165 6.65652L45.9133 7.5334C45.9133 7.5334 48.707 8.38355 53.3133 6.99604C57.9196 5.60854 57.9838 1.18939 55.2676 0.400728C48.3434 -1.50274 41.3926 3.67566 38.3288 9.58124C37.6578 10.8725 37.1712 12.0408 36.8451 13.0968L35.8479 13.5219C36.5697 11.4874 37.0108 8.40226 35.634 5.4321C34.9764 4.17292 33.899 3.14365 32.3992 2.34163C31.2095 1.7107 29.8701 1.25087 28.381 0.962145C23.6063 0.0638775 18.5963 0.13606 14.3002 0.887289C11.9235 1.32573 9.66981 2.07696 7.5391 3.14098C5.40571 4.20767 3.8685 5.79301 2.92478 7.90233C2.67081 8.55465 2.48634 9.59728 2.48634 9.9368C2.48634 10.8351 2.76438 11.6211 3.32312 12.3001C3.88186 12.9791 4.70528 13.3401 5.79336 13.3909C6.66489 13.439 7.38671 13.2946 7.95882 12.9551C9.23404 12.1745 9.35969 11.081 8.8865 10.7362C8.59509 10.5437 8.37855 10.3432 8.23151 10.1373C7.31988 8.80862 8.45608 7.04684 10.0922 5.66201C12.0385 3.89221 15.439 2.14914 20.6174 1.8016C24.5688 1.55564 29.282 1.32038 28.3677 6.9907C28.0789 8.73644 27.7688 10.3539 26.6968 12.8455C25.9456 14.4442 24.9377 15.9172 23.6625 17.262C22.3926 18.604 20.8928 19.2804 19.1738 19.2804C18.3424 19.3045 17.5484 19.0478 17.2115 18.9516C17.5992 18.5906 17.9387 18.1977 18.2301 17.7699C18.5188 17.3475 18.7514 16.8797 18.9198 16.369C19.0562 15.9814 20.5987 11.5008 21.2751 9.52777L21.2831 9.5251C22.3765 5.96945 24.4698 4.56056 25.1943 4.27718C25.9215 3.9938 26.3947 4.02588 26.3947 4.02588V3.23455C26.3947 3.23455 22.8925 2.44589 18.853 3.39228C14.8161 4.336 12.8833 6.43463 11.7684 9.71758C11.0707 11.7948 10.135 14.4896 9.47198 16.369C8.98809 16.1284 8.47212 15.9333 7.92674 15.7889C7.38136 15.6445 5.70781 15.1232 3.03974 15.6445C2.04523 15.8611 1.28865 16.238 0.764662 16.7701C-0.352826 17.9383 -0.101525 19.3044 0.601584 20.1894C0.941107 20.6251 1.4143 21.0128 2.01849 21.3523C2.69487 21.6918 3.44075 21.9404 4.25347 22.0982C6.98303 22.5446 9.70456 22.1463 10.7606 21.9164C12.6025 21.5581 14.8348 20.5663 14.9551 20.5155C15.0781 20.5396 17.5644 21.3256 19.5 21.5528C20.2752 21.6383 21.9595 21.6838 22.9513 21.6437C25.5953 21.5234 28.1084 20.8684 30.493 19.6814C30.5519 19.652 30.6026 19.6199 30.6615 19.5878C33.6798 18.1041 35.7009 16.2568 36.3532 15.6205C36.2248 17.4651 36.7167 18.8794 37.6391 19.9782C39.6976 22.5446 47.1885 23.2183 51.2093 20.0076C51.5195 19.7696 51.8002 19.529 52.0622 19.2804C53.0968 18.3554 53.9977 17.3876 54.6821 16.599C54.0244 18.9115 55.0992 21.9886 58.1575 21.8977C62.2265 21.8656 64.7823 18.8072 64.7823 18.8072C64.7823 18.8072 64.948 21.887 68.918 21.9057ZM6.93758 19.3258C6.34408 19.6654 5.73187 19.8819 5.10361 19.9782C3.65195 20.168 2.86329 19.8766 2.53179 19.7188C2.28851 19.5959 2.12008 19.3499 2.12008 19.1093C2.12008 18.1335 3.92731 17.7405 4.26416 17.6897C4.59567 17.6416 5.84682 17.4143 8.48014 18.1255C8.04705 18.5853 7.53108 18.9863 6.93758 19.3258ZM45.2583 19.0612C43.9136 20.577 42.7186 20.4139 42.7186 20.4139C41.3043 20.3658 40.9247 17.8715 43.4698 13.4818C45.7449 9.55985 47.6029 11.3377 47.7419 12.0381C47.8809 12.7626 47.9077 15.6125 45.2583 19.0612Z" fill="white"/>
<path d="M81.1169 24.5923L81.034 24.9906C81.2773 24.8008 81.5393 24.595 81.8307 24.595C82.0847 24.595 82.2103 24.7901 82.2103 24.996C82.2103 25.0762 82.1889 25.2045 82.1702 25.3061L82.0473 25.8568C82.0125 26.0279 82.0045 26.1054 82.0045 26.1536C82.0045 26.2418 82.0312 26.3567 82.205 26.3567C82.2745 26.3567 82.3814 26.3327 82.4403 26.3113V26.4664C82.2745 26.5252 82.0205 26.6027 81.8387 26.6027C81.665 26.6027 81.5019 26.5198 81.5019 26.33C81.5019 26.2418 81.5233 26.1696 81.534 26.1054L81.6756 25.4344C81.6837 25.3997 81.7131 25.2526 81.7131 25.1778C81.7131 25.0361 81.6516 24.9345 81.5206 24.9345C81.4645 24.9345 81.3201 24.9639 81.01 25.2018L80.756 26.5813H80.2641L80.5822 24.9398L80.248 24.8917V24.75L80.9618 24.5923H81.1169Z" fill="white"/>
<path d="M83.5997 24.5923L83.5436 24.8676C83.7174 24.7206 83.9473 24.595 84.1772 24.595C84.4499 24.595 84.7413 24.7821 84.7413 25.3114C84.7413 25.6189 84.6424 25.9424 84.4098 26.2097C84.1424 26.5171 83.8243 26.5973 83.589 26.5973C83.4447 26.5973 83.3404 26.5653 83.2602 26.5305L83.1372 27.239L83.5142 27.3058V27.4662H82.3887V27.3058L82.6346 27.239L82.6694 27.1882L83.057 24.9425L82.7469 24.8944V24.7527L83.4206 24.595H83.5997V24.5923ZM83.2976 26.2979C83.3297 26.314 83.4473 26.3648 83.573 26.3648C83.6773 26.3648 83.8804 26.3247 84.0408 26.0707C84.1718 25.8702 84.228 25.6216 84.228 25.389C84.228 25.1911 84.1745 24.889 83.9152 24.889C83.7387 24.889 83.5543 25.0387 83.5169 25.0628L83.2976 26.2979Z" fill="white"/>
<path d="M86.8195 24.8195C86.9238 24.9291 87.0361 25.1189 87.0361 25.4237C87.0361 26.2204 86.3838 26.6187 85.8972 26.6187C85.5737 26.6187 85.3893 26.477 85.301 26.3808C85.1968 26.2739 85.0898 26.0867 85.0898 25.7873C85.0898 25.2633 85.4561 24.5923 86.2341 24.5923C86.5121 24.595 86.6992 24.6965 86.8195 24.8195ZM85.6085 25.8408C85.6085 26.2418 85.7127 26.4102 85.9507 26.4102C86.0443 26.4102 86.1886 26.3701 86.3169 26.1803C86.4613 25.9664 86.5201 25.667 86.5201 25.3863C86.5201 25.1804 86.4907 24.8062 86.1726 24.8062C85.6566 24.8062 85.6085 25.6804 85.6085 25.8408Z" fill="white"/>
<path d="M90.407 24.5923C90.3856 24.6645 90.3375 24.8302 90.2706 25.2072L90.153 25.8595C90.1236 26.0226 90.1156 26.0947 90.1156 26.1402C90.1156 26.207 90.1316 26.3594 90.3054 26.3594C90.3749 26.3594 90.4765 26.3354 90.5514 26.3113V26.4637C90.3589 26.5359 90.1129 26.6054 89.9472 26.6054C89.8081 26.6054 89.6397 26.5412 89.6397 26.3086V26.2926C89.4659 26.4583 89.236 26.6241 88.9847 26.6241C88.6078 26.6241 88.418 26.2658 88.418 25.8862C88.418 25.1992 88.8938 24.5976 89.5675 24.5976C89.6477 24.5976 89.7921 24.6057 90.0193 24.6912L90.1691 24.595H90.407V24.5923ZM89.6745 24.7848H89.6344C89.212 24.7848 88.9339 25.2125 88.9339 25.8087C88.9339 26.1776 89.0596 26.2819 89.236 26.2819C89.3884 26.2819 89.5167 26.1963 89.6477 26.0974L89.8322 25.0281L89.6745 24.7848Z" fill="white"/>
<path d="M92.0561 25.56C92.3716 25.5734 92.5534 25.7498 92.5534 25.977C92.5534 26.2578 92.3021 26.6213 91.5723 26.6213C91.1151 26.6213 90.8184 26.4075 90.8184 25.9717C90.8184 25.8354 90.8504 25.6322 90.8905 25.4718C91.1365 24.5387 91.8637 24.5949 92.0214 24.5949C92.2968 24.5949 92.6363 24.6484 92.6363 24.9959C92.6363 25.183 92.5267 25.3007 92.4251 25.3782C92.3876 25.4049 92.254 25.5012 92.0561 25.5493V25.56ZM91.321 26.0519C91.321 26.1535 91.329 26.4101 91.6364 26.4101C91.9599 26.4101 92.0722 26.1642 92.0722 25.969C92.0722 25.7765 91.9145 25.6803 91.746 25.6803C91.6979 25.6803 91.5803 25.683 91.3504 25.7418C91.3343 25.822 91.321 25.9423 91.321 26.0519ZM91.7086 25.4878C92 25.437 92.1497 25.2312 92.1497 25.0307C92.1497 24.9184 92.1096 24.8034 91.9358 24.8034C91.8262 24.8034 91.722 24.8489 91.6444 24.913C91.5562 24.9879 91.4386 25.1456 91.3744 25.5386L91.7086 25.4878Z" fill="white"/>
<path d="M93.8477 24.5923L93.7702 24.9879C93.8317 24.9345 94.0001 24.7981 94.1204 24.7286C94.1766 24.6965 94.3637 24.5949 94.5642 24.5949C94.8529 24.5949 94.9198 24.8088 94.9278 24.9746C94.9839 24.9264 95.3475 24.5949 95.6951 24.5949C95.941 24.5949 96.08 24.7767 96.08 25.004C96.08 25.0788 96.0693 25.1777 96.0506 25.2526L95.9223 25.8568C95.9063 25.9343 95.8769 26.06 95.8769 26.1535C95.8769 26.2685 95.9437 26.3567 96.072 26.3567C96.1041 26.3567 96.1763 26.3514 96.3126 26.3086V26.461C96.1415 26.5305 95.9223 26.6027 95.6951 26.6027C95.5507 26.6027 95.3769 26.5358 95.3769 26.3246C95.3769 26.2712 95.3876 26.207 95.409 26.1028L95.5587 25.3863C95.5748 25.3141 95.5908 25.2098 95.5908 25.1483C95.5908 25.0387 95.5347 24.9318 95.3983 24.9318C95.1925 24.9318 94.9625 25.135 94.9144 25.1831L94.6738 26.5786H94.1873L94.4145 25.3649C94.4225 25.3248 94.4412 25.2072 94.4412 25.159C94.4412 25.0173 94.3557 24.9318 94.2461 24.9318C94.0456 24.9318 93.8718 25.0815 93.7488 25.1804L93.5002 26.5786H93.0163L93.3318 24.9371L93.0029 24.889V24.7473L93.6927 24.5896H93.8477V24.5923Z" fill="white"/>
<path d="M98.31 24.8195C98.4143 24.9291 98.5266 25.1189 98.5266 25.4237C98.5266 26.2204 97.8743 26.6187 97.3904 26.6187C97.0669 26.6187 96.8824 26.477 96.7942 26.3808C96.6926 26.2739 96.583 26.0867 96.583 25.7873C96.583 25.2633 96.9519 24.5923 97.7272 24.5923C98.0026 24.595 98.1871 24.6965 98.31 24.8195ZM97.099 25.8408C97.099 26.2418 97.2032 26.4102 97.4438 26.4102C97.5374 26.4102 97.6791 26.3701 97.8101 26.1803C97.9571 25.9664 98.0133 25.667 98.0133 25.3863C98.0133 25.1804 97.9839 24.8062 97.6657 24.8062C97.1471 24.8062 97.099 25.6804 97.099 25.8408Z" fill="white"/>
<path d="M100.09 24.5923C100.181 25.1136 100.223 25.5253 100.231 26.0413H100.239L101.012 24.6645L101.531 24.611L101.269 25.8595C101.242 25.9905 101.223 26.0814 101.223 26.1562C101.223 26.2471 101.25 26.3594 101.429 26.3594C101.504 26.3594 101.603 26.3354 101.659 26.314V26.469C101.472 26.5412 101.287 26.6054 101.09 26.6054C100.894 26.6054 100.753 26.5145 100.753 26.3327C100.753 26.2445 100.774 26.1669 100.785 26.1081L101.012 25.0788H101.004L100.17 26.584H99.8625C99.8625 26.068 99.8331 25.5387 99.7636 25.0788H99.7555C99.7074 25.3034 99.6219 25.6483 99.5337 25.9023C99.4588 26.1242 99.2904 26.608 98.8974 26.608C98.7717 26.608 98.6113 26.5091 98.6113 26.3434C98.6113 26.2578 98.7129 26.0787 98.8653 26.0413L99.0444 26.2765C99.277 26.0707 99.4401 25.5307 99.547 24.9452L99.2128 24.8837V24.742L99.8999 24.5976H100.09V24.5923Z" fill="white"/>
<path d="M103.643 24.8195C103.75 24.9291 103.862 25.1189 103.862 25.4237C103.862 26.2204 103.207 26.6187 102.721 26.6187C102.4 26.6187 102.213 26.477 102.125 26.3808C102.026 26.2739 101.916 26.0867 101.916 25.7873C101.916 25.2633 102.282 24.5923 103.058 24.5923C103.336 24.595 103.523 24.6965 103.643 24.8195ZM102.432 25.8408C102.432 26.2418 102.539 26.4102 102.777 26.4102C102.868 26.4102 103.015 26.3701 103.143 26.1803C103.287 25.9664 103.346 25.667 103.346 25.3863C103.346 25.1804 103.317 24.8062 102.999 24.8062C102.48 24.8062 102.432 25.6804 102.432 25.8408Z" fill="white"/>
<path d="M106.388 23.571C106.276 24.0362 105.979 24.1485 105.773 24.1726L105.425 24.2127C104.96 24.2661 104.722 24.4693 104.655 25.012H104.664C104.786 24.8115 104.995 24.595 105.367 24.595C105.65 24.595 105.834 24.7046 105.949 24.8222C106.051 24.9318 106.166 25.1216 106.166 25.4264C106.166 26.1001 105.658 26.6214 105.027 26.6214C104.361 26.6214 104.22 26.0199 104.22 25.6937C104.22 25.3863 104.295 24.8757 104.538 24.4292C104.68 24.1726 104.917 23.8518 105.49 23.7769L105.885 23.7234C106.027 23.7047 106.161 23.678 106.222 23.571H106.388ZM104.736 25.8408C104.736 25.8889 104.744 26.1215 104.816 26.2525C104.888 26.3808 105.006 26.4102 105.078 26.4102C105.171 26.4102 105.316 26.3701 105.447 26.1803C105.591 25.9664 105.647 25.667 105.647 25.3863C105.647 25.1804 105.618 24.8062 105.3 24.8062C104.875 24.8062 104.736 25.4184 104.736 25.8408Z" fill="white"/>
<path d="M107.409 24.6137L107.179 25.8221C107.171 25.8702 107.147 26.0146 107.147 26.0627C107.147 26.1964 107.227 26.282 107.35 26.282C107.452 26.282 107.666 26.1964 107.842 26.0841L108.112 24.6619L108.593 24.6084L108.358 25.8569C108.334 25.9772 108.315 26.0708 108.315 26.1483C108.315 26.2632 108.382 26.3568 108.508 26.3568C108.556 26.3568 108.655 26.3461 108.754 26.3087V26.4611C108.529 26.5333 108.462 26.552 108.425 26.5573C108.337 26.576 108.195 26.6028 108.109 26.6028C107.912 26.6028 107.815 26.4771 107.815 26.2873V26.2686C107.727 26.3301 107.398 26.6188 107.051 26.6188C106.805 26.6188 106.655 26.4905 106.655 26.2151C106.655 26.1483 106.671 26.0387 106.679 25.9852L106.874 24.9372L106.551 24.8891V24.7474L107.251 24.6137H107.409Z" fill="white"/>
<path d="M110.933 24.6431L110.66 25.8568C110.62 26.0466 110.615 26.1215 110.615 26.1535C110.615 26.2418 110.644 26.3567 110.815 26.3567C110.885 26.3567 110.995 26.3327 111.051 26.3113V26.4663C110.885 26.5252 110.631 26.6027 110.449 26.6027C110.275 26.6027 110.115 26.5198 110.115 26.33C110.115 26.2444 110.134 26.1642 110.147 26.1054L110.422 24.8783H110.043C109.968 25.2018 109.842 25.6296 109.733 25.8969C109.596 26.2311 109.385 26.6054 109.014 26.6054C108.861 26.6054 108.728 26.4931 108.728 26.3407C108.728 26.2551 108.832 26.076 108.984 26.0386L109.163 26.2738C109.305 26.1616 109.409 26.0065 109.53 25.7098C109.637 25.4504 109.714 25.1644 109.757 24.9211L109.428 24.7874V24.6457H110.933V24.6431Z" fill="white"/>
<path d="M112.201 24.6137L111.971 25.8221C111.963 25.8702 111.939 26.0146 111.939 26.0627C111.939 26.1964 112.022 26.282 112.145 26.282C112.244 26.282 112.458 26.1964 112.637 26.0841L112.907 24.6619L113.386 24.6084L113.15 25.8569C113.126 25.9772 113.107 26.0708 113.107 26.1483C113.107 26.2632 113.177 26.3568 113.303 26.3568C113.348 26.3568 113.447 26.3461 113.546 26.3087V26.4611C113.321 26.5333 113.257 26.552 113.22 26.5573C113.132 26.576 112.99 26.6028 112.907 26.6028C112.709 26.6028 112.61 26.4771 112.61 26.2873V26.2686C112.527 26.3301 112.193 26.6188 111.846 26.6188C111.6 26.6188 111.453 26.4905 111.453 26.2151C111.453 26.1483 111.469 26.0387 111.477 25.9852L111.669 24.9372L111.346 24.8891V24.7474L112.046 24.6137H112.201Z" fill="white"/>
<path d="M116.077 25.56C116.389 25.5734 116.574 25.7498 116.574 25.977C116.574 26.2578 116.325 26.6213 115.593 26.6213C115.138 26.6213 114.839 26.4075 114.839 25.9717C114.839 25.8354 114.871 25.6322 114.911 25.4718C115.157 24.5387 115.884 24.5949 116.042 24.5949C116.317 24.5949 116.657 24.6484 116.657 24.9959C116.657 25.183 116.547 25.3007 116.446 25.3782C116.411 25.4049 116.277 25.5012 116.079 25.5493V25.56H116.077ZM115.339 26.0519C115.339 26.1535 115.347 26.4101 115.654 26.4101C115.978 26.4101 116.09 26.1642 116.09 25.969C116.09 25.7765 115.932 25.6803 115.764 25.6803C115.716 25.6803 115.598 25.683 115.368 25.7418C115.355 25.822 115.339 25.9423 115.339 26.0519ZM115.732 25.4878C116.023 25.437 116.173 25.2312 116.173 25.0307C116.173 24.9184 116.133 24.8034 115.959 24.8034C115.852 24.8034 115.745 24.8489 115.67 24.913C115.579 24.9879 115.464 25.1456 115.398 25.5386L115.732 25.4878Z" fill="white"/>
<path d="M119.191 23.592C119.523 23.7498 119.945 24.1561 119.945 25.0571C119.945 25.7629 119.622 26.6183 118.774 26.6183C118.108 26.6183 118.007 26.0863 118.007 25.8136C118.007 25.3806 118.189 25.0918 118.365 24.91C118.6 24.6748 118.873 24.5892 119.119 24.5892C119.159 24.5892 119.277 24.5946 119.408 24.6347C119.368 24.4048 119.202 24.0626 118.908 23.8995L118.579 23.8514L118.592 23.715L119.191 23.592ZM119.156 24.7844C119.023 24.7844 118.812 24.8405 118.667 25.1506C118.574 25.3458 118.525 25.6131 118.525 25.8404C118.525 26.3189 118.683 26.4098 118.844 26.4098C118.961 26.4098 119.146 26.3457 119.279 26.0275C119.386 25.7762 119.445 25.418 119.445 25.0918C119.445 25.009 119.442 24.9341 119.434 24.8566C119.325 24.7924 119.207 24.7844 119.156 24.7844Z" fill="white"/>
<path d="M121.809 26.2792C121.579 26.453 121.293 26.6214 120.978 26.6214C120.408 26.6214 120.267 26.1937 120.267 25.8515C120.267 25.3088 120.702 24.595 121.43 24.595C121.75 24.595 121.929 24.75 121.929 25.0388C121.929 25.5601 121.261 25.667 120.908 25.667C120.847 25.667 120.793 25.667 120.759 25.6643C120.753 25.6964 120.75 25.7739 120.75 25.8167C120.75 26.1402 120.932 26.306 121.17 26.306C121.389 26.306 121.617 26.1803 121.815 26.0306L121.809 26.2792ZM121.357 25.3088C121.502 25.1911 121.523 25.0655 121.523 25.004C121.523 24.8784 121.446 24.7928 121.328 24.7928C121.245 24.7928 121.103 24.8276 120.967 25.0521C120.879 25.1965 120.82 25.3569 120.793 25.4959C120.943 25.4879 121.184 25.4478 121.357 25.3088Z" fill="white"/>
<path d="M123.095 24.5923L123.02 24.9879C123.084 24.9345 123.25 24.7981 123.373 24.7286C123.429 24.6965 123.614 24.5949 123.817 24.5949C124.106 24.5949 124.172 24.8088 124.18 24.9746C124.237 24.9264 124.6 24.5949 124.945 24.5949C125.194 24.5949 125.327 24.7767 125.327 25.004C125.327 25.0788 125.317 25.1777 125.301 25.2526L125.17 25.8568C125.154 25.9343 125.127 26.06 125.127 26.1535C125.127 26.2685 125.194 26.3567 125.319 26.3567C125.351 26.3567 125.424 26.3514 125.563 26.3086V26.461C125.389 26.5305 125.17 26.6027 124.942 26.6027C124.798 26.6027 124.624 26.5358 124.624 26.3246C124.624 26.2712 124.638 26.207 124.656 26.1028L124.806 25.3863C124.822 25.3141 124.838 25.2098 124.838 25.1483C124.838 25.0387 124.782 24.9318 124.646 24.9318C124.44 24.9318 124.21 25.135 124.162 25.1831L123.918 26.5786H123.435L123.662 25.3649C123.67 25.3248 123.689 25.2072 123.689 25.159C123.689 25.0173 123.606 24.9318 123.496 24.9318C123.293 24.9318 123.119 25.0815 123.001 25.1804L122.75 26.5786H122.266L122.582 24.9371L122.253 24.889V24.7473L122.943 24.5896H123.095V24.5923Z" fill="white"/>
<path d="M127.824 24.5923C127.803 24.6645 127.754 24.8302 127.688 25.2072L127.573 25.8595C127.543 26.0226 127.533 26.0947 127.533 26.1402C127.533 26.207 127.554 26.3594 127.722 26.3594C127.792 26.3594 127.899 26.3354 127.971 26.3113V26.4637C127.779 26.5359 127.533 26.6054 127.367 26.6054C127.23 26.6054 127.059 26.5412 127.059 26.3086V26.2926C126.886 26.4583 126.656 26.6241 126.402 26.6241C126.025 26.6241 125.835 26.2658 125.835 25.8862C125.835 25.1992 126.311 24.5976 126.987 24.5976C127.07 24.5976 127.212 24.6057 127.439 24.6912L127.589 24.595H127.824V24.5923ZM127.091 24.7848H127.054C126.632 24.7848 126.351 25.2125 126.351 25.8087C126.351 26.1776 126.477 26.2819 126.653 26.2819C126.805 26.2819 126.934 26.1963 127.065 26.0974L127.249 25.0281L127.091 24.7848Z" fill="white"/>
<path d="M130.142 24.6431L129.874 25.8568C129.834 26.0466 129.829 26.1215 129.829 26.1535C129.829 26.2418 129.858 26.3567 130.032 26.3567C130.102 26.3567 130.208 26.3327 130.265 26.3113V26.4663C130.102 26.5252 129.845 26.6027 129.663 26.6027C129.489 26.6027 129.332 26.5198 129.332 26.33C129.332 26.2444 129.35 26.1642 129.361 26.1054L129.636 24.8783H129.257C129.179 25.2018 129.054 25.6296 128.947 25.8969C128.808 26.2311 128.594 26.6054 128.227 26.6054C128.072 26.6054 127.941 26.4931 127.941 26.3407C127.941 26.2551 128.043 26.076 128.195 26.0386L128.372 26.2738C128.516 26.1616 128.618 26.0065 128.741 25.7098C128.845 25.4504 128.923 25.1644 128.965 24.9211L128.642 24.7874V24.6457H130.142V24.6431Z" fill="white"/>
<path d="M132.211 25.8568C132.182 25.9905 132.166 26.0787 132.166 26.1536C132.166 26.2418 132.195 26.3568 132.369 26.3568C132.438 26.3568 132.545 26.3327 132.601 26.3113V26.4664C132.438 26.5252 132.182 26.6027 132 26.6027C131.826 26.6027 131.668 26.5198 131.668 26.33C131.668 26.2445 131.687 26.1643 131.698 26.1055L131.781 25.7419H131.599C131.449 25.7419 131.35 25.8221 131.281 25.9584L131.168 26.1643C131.053 26.3701 130.877 26.6027 130.583 26.6027C130.431 26.6027 130.297 26.4904 130.297 26.338C130.297 26.2525 130.396 26.0734 130.551 26.0359L130.727 26.2712C130.813 26.2151 130.89 26.1375 130.955 26.0359L131.035 25.9076C131.083 25.8301 131.096 25.7793 131.2 25.7098C130.848 25.651 130.767 25.4585 130.767 25.2607C130.767 25.0682 130.864 24.873 131.037 24.75C131.235 24.6083 131.484 24.595 131.647 24.595C131.786 24.595 131.968 24.603 132.468 24.6431L132.211 25.8568ZM131.96 24.8409C131.877 24.8195 131.783 24.8035 131.695 24.8035C131.505 24.8035 131.251 24.9158 131.251 25.25C131.251 25.4398 131.406 25.5467 131.612 25.5467C131.695 25.5467 131.746 25.5414 131.818 25.5307L131.96 24.8409Z" fill="white"/>
<path d="M133.437 24.5869H133.463C133.605 24.5869 133.725 24.5923 133.888 25.3114C133.953 25.1938 134.223 24.6163 134.591 24.6163C134.698 24.6163 134.848 24.6805 134.848 24.8756C134.848 25.0254 134.747 25.135 134.589 25.1831L134.431 24.9692C134.247 25.0655 134.108 25.2553 133.985 25.5146C134.033 25.6937 134.059 25.7793 134.092 25.8862C134.118 25.9958 134.193 26.3647 134.487 26.3647C134.551 26.3647 134.653 26.3487 134.706 26.338V26.4957C134.37 26.6053 134.206 26.608 134.164 26.608C133.92 26.608 133.768 26.5358 133.626 25.8675C133.447 26.199 133.193 26.5893 132.918 26.5893C132.747 26.5893 132.632 26.4717 132.632 26.3246C132.632 26.1616 132.744 26.0787 132.886 26.0413L133.065 26.2551C133.289 26.0894 133.423 25.8675 133.533 25.659C133.42 25.3168 133.396 25.2419 133.327 25.0788C133.303 25.0227 133.284 24.9853 133.249 24.9371L132.886 24.9104V24.7741L133.437 24.5869Z" fill="white"/>
</svg>
