<svg width="132" height="44" viewBox="0 0 132 44" fill="none" xmlns="http://www.w3.org/2000/svg">
<path d="M32.7325 30.3911L38.8167 36.4753L43.5432 31.7488L37.3296 25.5353L37.3167 25.5547C34.0192 22.464 28.8466 22.4834 25.6331 25.6969L25.6137 25.7163C24.6761 26.6344 23.3959 27.1905 21.9864 27.1905C19.1221 27.1905 16.8009 24.8628 16.8009 21.9985C16.8009 19.1342 19.1221 16.8065 21.9864 16.8065C23.4347 16.8065 24.7667 17.3173 25.7107 18.2742L25.7495 18.313C29.0405 21.3196 34.142 21.242 37.3361 18.0544C40.5237 14.8603 40.7047 9.70064 37.6982 6.40311C37.6982 6.40311 37.6594 6.35784 37.6529 6.35137C29.1116 -2.18988 15.1844 -2.1058 6.53972 6.5389C-2.10498 15.1836 -2.18905 29.1108 6.34574 37.6521C14.5184 45.8313 27.6504 46.0964 36.3404 38.5056L31.9113 34.0701C31.9113 34.0701 31.7044 33.7985 31.3941 34.0701C28.8013 36.0874 25.5361 37.2965 21.9929 37.2965C13.5486 37.2965 6.70137 30.4492 6.70137 22.005C6.70137 13.5478 13.5486 6.70702 21.9929 6.70702C26.2409 6.70702 30.0362 8.28464 32.8165 11.1296L32.8683 11.1943C33.2885 11.8667 33.2109 12.7589 32.629 13.3408C31.9501 14.0197 30.8574 14.0197 30.1785 13.3408C30.1591 13.3279 30.1332 13.3021 30.1332 13.3021C25.4779 8.9506 18.1393 9.07348 13.6003 13.6124C8.96437 18.2419 8.96437 25.7615 13.6003 30.3975C18.2039 35.0076 25.6589 35.027 30.3013 30.4815C30.3078 30.4815 30.3078 30.4815 30.3078 30.4815C30.3208 30.4686 30.3466 30.4298 30.3466 30.4234C30.9932 29.7639 32.0536 29.7833 32.7325 30.3911Z" fill="white"/>
<path d="M53.7081 29.1981C53.6563 29.2757 53.6175 29.3274 53.5594 29.3662C53.5076 29.405 53.443 29.4244 53.3654 29.4244C53.2942 29.4244 53.2167 29.405 53.1326 29.3597C53.0486 29.3145 52.958 29.2627 52.8546 29.211C52.7511 29.1528 52.6347 29.1011 52.499 29.0558C52.3696 29.0106 52.2145 28.9847 52.0464 28.9847C51.749 28.9847 51.5291 29.0494 51.3869 29.1722C51.2381 29.3015 51.1735 29.4696 51.1735 29.683C51.1735 29.8188 51.2123 29.9287 51.3028 30.0257C51.3869 30.1162 51.5033 30.1938 51.6455 30.2585C51.7877 30.3231 51.9494 30.3878 52.1304 30.4395C52.3115 30.4977 52.499 30.5559 52.6865 30.6206C52.874 30.6917 53.0615 30.7693 53.2425 30.8598C53.4236 30.9503 53.5852 31.0667 53.721 31.2025C53.8632 31.3447 53.9732 31.5128 54.0637 31.7133C54.1477 31.9137 54.193 32.1529 54.193 32.4374C54.193 32.7478 54.1348 33.0452 54.0313 33.3168C53.9214 33.5883 53.7598 33.8276 53.5529 34.028C53.346 34.2285 53.0938 34.3901 52.7899 34.5065C52.486 34.6229 52.1434 34.681 51.7619 34.681C51.5485 34.681 51.3351 34.6616 51.1153 34.6164C50.8955 34.5711 50.6821 34.5129 50.4752 34.4289C50.2683 34.3513 50.0808 34.2608 49.8933 34.1509C49.7122 34.0409 49.557 33.9181 49.4277 33.7823L49.8933 33.0517C49.9321 32.9935 49.9773 32.9547 50.042 32.9159C50.1002 32.8771 50.1648 32.8577 50.2424 32.8577C50.3329 32.8577 50.4299 32.89 50.5269 32.9482C50.6174 33.0064 50.7274 33.0711 50.8502 33.1486C50.9666 33.2198 51.1024 33.2845 51.264 33.3426C51.4192 33.4008 51.6002 33.4331 51.8136 33.4331C52.0981 33.4331 52.3244 33.3685 52.4796 33.2456C52.6347 33.1163 52.7188 32.9159 52.7188 32.6508C52.7188 32.4892 52.6735 32.3598 52.5895 32.2628C52.5054 32.1594 52.3891 32.0818 52.2468 32.0171C52.1046 31.9525 51.9429 31.8943 51.7619 31.8426C51.5808 31.7909 51.3998 31.7391 51.2058 31.6809C51.0183 31.6228 50.8308 31.5451 50.6498 31.4546C50.4687 31.3641 50.3071 31.2477 50.1713 31.1055C50.029 30.9632 49.9127 30.7822 49.8286 30.5623C49.7381 30.349 49.6928 30.0774 49.6928 29.7671C49.6928 29.5084 49.7446 29.2628 49.848 29.0171C49.9515 28.7778 50.1002 28.5645 50.3006 28.3705C50.5011 28.183 50.7468 28.0278 51.0377 27.9179C51.3222 27.808 51.6584 27.7498 52.027 27.7498C52.2339 27.7498 52.4408 27.7692 52.6348 27.8015C52.8352 27.8338 53.0162 27.8855 53.1973 27.9437C53.3719 28.0084 53.5335 28.086 53.6887 28.17C53.8438 28.2606 53.9796 28.3575 54.1025 28.4739L53.7081 29.1981Z" fill="white"/>
<path d="M61.0463 34.6067H59.4557V31.7359H56.7013V34.6067H55.1172V27.8176H56.7013V30.6561H59.4557V27.8176H61.0463V34.6067Z" fill="white"/>
<path d="M69.0197 31.2121C69.0197 31.7035 68.9357 32.1561 68.7676 32.5828C68.5994 33.0031 68.3602 33.3717 68.0499 33.682C67.746 33.9924 67.3774 34.2381 66.9442 34.4126C66.511 34.5872 66.0325 34.6777 65.5024 34.6777C64.9722 34.6777 64.4937 34.5872 64.0605 34.4126C63.6273 34.2381 63.2523 33.9924 62.9484 33.682C62.638 33.3717 62.3988 33.0031 62.2307 32.5828C62.0626 32.1561 61.9785 31.7035 61.9785 31.2121C61.9785 30.7207 62.0626 30.2616 62.2307 29.8414C62.3988 29.4146 62.638 29.0525 62.9484 28.7422C63.2587 28.4318 63.6273 28.1861 64.0605 28.0115C64.4937 27.8305 64.9786 27.74 65.5024 27.74C66.0325 27.74 66.511 27.8305 66.9442 28.0115C67.3774 28.1926 67.746 28.4383 68.0499 28.7486C68.3602 29.059 68.5994 29.4276 68.7676 29.8478C68.9357 30.2681 69.0197 30.7207 69.0197 31.2121ZM67.4097 31.2121C67.4097 30.8759 67.3645 30.572 67.2804 30.3004C67.1964 30.0353 67.0671 29.8026 66.9054 29.6215C66.7438 29.434 66.5433 29.2918 66.3041 29.1948C66.0649 29.0913 65.7998 29.0461 65.4959 29.0461C65.192 29.0461 64.9204 29.0913 64.6812 29.1948C64.442 29.2918 64.2415 29.434 64.0799 29.6215C63.9182 29.8091 63.7954 30.0353 63.7113 30.3004C63.6208 30.572 63.582 30.8759 63.582 31.2121C63.582 31.5483 63.6208 31.8522 63.7113 32.1238C63.7954 32.3953 63.9247 32.6216 64.0799 32.8027C64.2415 32.9902 64.442 33.1324 64.6812 33.2294C64.914 33.3264 65.1855 33.3781 65.4959 33.3781C65.7933 33.3781 66.0649 33.3264 66.3041 33.2294C66.5369 33.1324 66.7373 32.9902 66.9054 32.8027C67.0671 32.6152 67.1964 32.3889 67.2804 32.1238C67.3645 31.8522 67.4097 31.5483 67.4097 31.2121Z" fill="white"/>
<path d="M71.523 32.3372V34.6067H69.9453V27.8176H72.3441C72.8161 27.8176 73.2299 27.8758 73.5726 27.9857C73.9153 28.1021 74.1998 28.2573 74.4196 28.4513C74.6459 28.6517 74.8076 28.8845 74.911 29.156C75.0209 29.4276 75.0726 29.7121 75.0726 30.0289C75.0726 30.3652 75.0209 30.6819 74.911 30.96C74.8011 31.2445 74.633 31.4837 74.4131 31.6906C74.1868 31.891 73.9088 32.0462 73.5597 32.1626C73.217 32.279 72.8096 32.3307 72.3441 32.3307H71.523V32.3372ZM71.523 31.154H72.3441C72.7514 31.154 73.0424 31.057 73.2235 30.8565C73.4045 30.6626 73.495 30.391 73.495 30.0354C73.495 29.8802 73.4691 29.738 73.4239 29.6087C73.3786 29.4793 73.3075 29.3694 73.2105 29.2789C73.1135 29.1884 72.9971 29.1172 72.8549 29.0655C72.7062 29.0138 72.5381 28.9944 72.3376 28.9944H71.5165V31.154H71.523Z" fill="white"/>
<path d="M110.611 19.6065C109.596 19.6065 106.731 19.6065 106.731 19.6065V10.3217C106.731 9.41645 106.292 8.96387 105.496 8.96387H104.203V20.3565C104.203 21.3393 104.203 21.863 104.203 21.863H111.91C111.91 21.863 111.91 21.4104 111.91 20.8156C111.91 20.1561 111.626 19.6065 110.611 19.6065Z" fill="white"/>
<path d="M100.817 19.3994V10.205C100.817 9.29984 100.416 8.95068 99.5822 8.95068H98.2891V9.38388V20.3563C98.2891 21.3391 98.8193 21.8628 99.8085 21.8628H100.817V21.4231C100.817 21.4231 100.824 20.796 100.817 19.3994Z" fill="white"/>
<path d="M93.2199 10.2115L90.3362 18.1579L87.6141 10.2115C87.2585 9.26102 86.8189 8.95713 85.8102 8.95713H84.627V9.40974C84.627 9.40974 88.6034 20.3045 88.8103 20.8735C89.0172 21.4425 89.4763 21.8757 90.2004 21.8757C90.5884 21.8757 91.5453 21.8757 91.5453 21.8757L96.0778 9.38385V8.95713H95.0239C94.0088 8.95067 93.5756 9.25456 93.2199 10.2115Z" fill="white"/>
<path d="M81.4658 16.205C82.371 15.7265 83.3279 14.6403 83.3279 12.8493C83.3279 10.4828 81.7115 8.89868 79.3062 8.89868H74.7155V9.33839C74.7155 9.33839 74.6832 9.94615 74.7155 11.2975V21.8173H77.2437V17.0003H78.4269C78.9765 17.0003 79.0476 17.0326 79.248 17.427L80.8709 20.6793C81.3365 21.6492 81.8796 21.8173 82.9141 21.8173H84.0003V21.2936L81.4658 16.205ZM77.2437 14.705V11.1811H79.0993C80.1662 11.1811 80.7481 11.7954 80.7481 12.9139C80.7481 14.0519 80.1403 14.705 79.0799 14.705H77.2437Z" fill="white"/>
<path d="M58.5377 18.1385C58.5248 18.1515 57.2122 19.645 55.0204 19.645C52.7961 19.645 51.0504 17.7376 51.0504 15.3001C51.0504 12.8883 52.6927 11.1491 54.9622 11.1491C56.9213 11.1491 57.736 12.7396 57.736 12.7396C58.0463 12.4357 59.5141 11.0068 59.5141 11.0068C59.5141 11.0068 58.2015 8.7373 54.9234 8.7373C51.2314 8.7373 48.4512 11.5629 48.4512 15.3001C48.4512 19.1601 51.2638 22.0697 54.9945 22.0697C58.1951 22.0697 59.999 19.9942 60.0766 19.9037L60.29 19.658L58.861 17.757L58.5377 18.1385Z" fill="white"/>
<path d="M129.803 19.6065C129.033 19.6065 126.428 19.6065 125.244 19.6065V16.4964H129.499V14.2076H125.244V11.2075H130.488V8.93799H122.723V21.8566H124.423H125.244H131.109C131.109 21.8566 131.109 21.404 131.109 20.8091C131.109 20.1561 130.811 19.6065 129.803 19.6065Z" fill="white"/>
<path d="M72.7561 21.5267C72.5686 21.0676 72.213 20.1883 71.9544 19.4576C71.9544 19.4576 68.6569 10.5349 68.45 9.96593C68.2431 9.40341 67.7904 8.97021 67.0663 8.97021C66.6719 8.97021 65.7214 8.97021 65.7214 8.97021L61.8096 19.5546C61.6544 19.9555 61.2988 20.9642 61.1113 21.5008V21.85H62.3657C63.3743 21.85 63.8075 21.5461 64.1632 20.5956L64.9714 18.3843H68.8379L69.6397 20.6021C69.9888 21.5526 70.4349 21.8564 71.4371 21.8564H72.7497V21.5267H72.7561ZM65.6761 16.1342L66.8077 12.9919C66.8464 12.882 66.8723 12.7785 66.9046 12.6557C66.9434 12.772 66.9758 12.8884 67.0081 12.9984L68.1331 16.1278H65.6761V16.1342Z" fill="white"/>
<path d="M119.8 19.6065C118.785 19.6065 115.921 19.6065 115.921 19.6065V10.3217C115.921 9.41645 115.475 8.96387 114.686 8.96387H113.393V20.3565C113.393 21.3393 113.393 21.863 113.393 21.863H121.106C121.106 21.863 121.106 21.4104 121.106 20.8156C121.1 20.1561 120.815 19.6065 119.8 19.6065Z" fill="white"/>
</svg>
