<svg width="152" height="45" viewBox="0 0 152 45" fill="none" xmlns="http://www.w3.org/2000/svg">
<path d="M95.6809 19.731C95.8635 20.3553 96.509 20.5592 96.509 20.5592V21.1028L93.4003 21.0985C92.5764 21.0985 91.8077 20.3341 91.8077 19.4125V17.2126H109.233C109.233 17.2126 109.237 17.3485 109.237 17.9728C109.237 18.5971 108.876 19.2936 107.869 19.9476C107.36 20.2789 99.8768 24.9887 97.6982 26.2882C97.4688 26.4114 97.5155 26.6195 97.5155 26.6195H104.901C104.901 26.6195 104.888 26.0164 104.888 25.8636C104.854 24.9632 104.039 24.8613 104.039 24.8613V24.3177L107.147 24.3219C107.967 24.3219 108.74 25.0821 108.74 26.0037V28.2036H91.4595C91.4595 28.2036 91.4552 28.0677 91.4552 27.4434C91.4552 26.8191 91.8162 26.1226 92.8227 25.4686C92.8227 25.4686 102.391 19.4677 102.76 19.2384C103.13 19.0091 103.011 18.7967 103.011 18.7967H95.6427C95.6469 18.8052 95.6597 19.6249 95.6809 19.731ZM148.376 17.2169C149.646 17.2169 150.36 18.0196 150.36 19.3446V22.0456C150.36 23.2305 149.438 23.7528 148.202 23.7528L147.637 23.7613C147.935 23.8463 148.219 24.0034 148.419 24.2837C148.826 24.8485 149.752 26.3434 150.258 26.9975C150.661 27.5198 151.251 27.4816 151.251 27.4816L151.243 28.2121H147.484C146.015 28.2121 145.272 27.3967 144.834 26.6832C144.397 25.9697 143.679 24.8485 143.327 24.271C143.119 23.927 142.702 23.8038 142.405 23.7613H137.776V28.5816H134.926C133.716 28.5816 133.181 27.5496 133.181 26.6237L133.172 18.9369C133.172 18.0408 132.298 17.7605 132.298 17.7605V17.2169H148.376ZM145.76 22.1348V19.3616C145.76 19.0346 145.582 18.8392 145.212 18.8392H137.776V22.1305H145.76V22.1348ZM112.605 18.9369C112.605 18.0408 111.73 17.7605 111.73 17.7605V17.2169H128.119C129.388 17.2169 130.102 18.0196 130.102 19.3446V28.2121H125.507V23.7571H117.213L117.204 28.5773H114.354C113.144 28.5773 112.609 27.5453 112.609 26.6195L112.605 18.9369ZM117.213 22.139H125.503V19.3658C125.503 19.0388 125.324 18.8435 124.955 18.8435H117.765C117.395 18.8435 117.217 19.0388 117.217 19.3658V22.139H117.213ZM73.6098 17.2296C74.6885 17.2296 75.4063 17.9813 75.4063 19.0728V25.957C75.4063 26.3944 75.6313 26.6832 76.0773 26.6832H83.3692V18.9369C83.3692 18.0408 82.4943 17.7605 82.4943 17.7605V17.2169H88.0365V28.2715H72.4165C71.2103 28.2715 70.6073 27.4009 70.6073 26.3434V19.1365C70.6073 18.0323 69.7791 17.803 69.7791 17.803V17.2169C69.7834 17.2169 72.6968 17.2296 73.6098 17.2296ZM53.6155 17.2296C54.6942 17.2296 55.4119 17.9813 55.4119 19.0728V25.9103C55.4119 26.4963 55.5521 26.6832 56.0277 26.6832H64.203V25.7064C64.203 24.8103 63.3281 24.53 63.3281 24.53V23.9864H66.3647C67.3924 23.9864 68.0464 24.7339 68.0464 25.9018V28.2758H52.4264C51.2203 28.2758 50.6172 27.4052 50.6172 26.3477V19.1365C50.6172 18.0323 49.7891 17.803 49.7891 17.803V17.2169C49.7891 17.2169 52.7024 17.2296 53.6155 17.2296Z" fill="white"/>
<path d="M22.5127 16.4482C22.5297 16.669 22.6869 16.8431 22.8567 16.8431C23.0309 16.8431 23.154 16.669 23.137 16.4482C23.1328 16.4015 23.1243 16.359 23.1115 16.3208C23.0436 16.3293 22.9332 16.3335 22.7718 16.308C22.6784 16.291 22.6019 16.2698 22.5425 16.2401C22.517 16.3038 22.5042 16.3717 22.5127 16.4482ZM27.3414 24.6574C27.6387 25.0694 28.7302 26.3647 28.9128 27.0909C29.0954 27.8213 29.1166 28.1144 28.9383 28.7302C28.7557 29.346 28.5051 30.1868 29.0954 30.3695C29.69 30.5521 29.9363 29.8471 30.051 29.2992C30.1656 28.7514 30.7559 27.9785 31.1212 27.7279C31.4864 27.4773 31.393 26.4538 30.7814 26.2033C30.1656 25.9527 29.278 25.5875 28.8024 24.8825C28.3225 24.1775 28.1186 23.6297 27.5963 23.6976C27.0654 23.7698 27.0442 24.2455 27.3414 24.6574ZM22.449 24.4918C23.222 24.6999 24.5215 25.3114 25.3412 26.7936C26.1608 28.2715 26.2288 28.5476 26.6619 28.4074C27.0951 28.2715 26.8658 27.4519 26.4581 26.5175C26.0504 25.5832 25.7319 24.7423 25.3666 24.1265C25.0014 23.5107 24.479 23.2857 23.7741 23.3748C23.0691 23.464 22.7506 23.464 22.2707 23.4428C21.7908 23.4216 21.6761 24.2879 22.449 24.4918ZM9.93346 24.2582C9.50028 24.2072 9.42808 24.3177 9.38137 24.891C9.43233 25.1755 9.48329 25.494 9.55974 25.7319C9.72112 26.2118 10.0396 26.6662 9.69564 26.6195C9.35589 26.5728 8.46404 25.9145 7.71659 24.9122C6.96489 23.91 7.26217 22.5467 7.28341 22.2027C7.30464 21.8587 7.57644 21.7483 7.23669 21.0178C6.89694 20.2874 6.82474 19.472 6.87146 18.7882C6.91817 18.1045 7.64864 17.6288 7.75906 17.1701C7.87372 16.7157 7.98839 16.2358 8.53199 15.964C9.07984 15.6922 9.69139 14.9873 10.286 14.6433C10.8763 14.2993 12.0187 13.6877 12.3584 13.3437C12.6982 12.9997 13.2715 12.6812 13.1568 12.2735C13.0422 11.8615 12.7916 11.3859 13.2715 11.3859C13.7472 11.3859 14.0444 11.3392 14.4989 10.9315C14.9533 10.5195 15.2293 9.86126 16.3887 9.51727C17.5481 9.17752 18.1172 8.33663 19.6886 8.26443C21.2599 8.19648 22.2155 8.28567 23.2389 8.28567C24.2624 8.28567 25.0396 8.14977 25.9697 7.96715C26.904 7.78454 27.1546 7.37259 27.9742 6.91817C28.7939 6.46376 29.9533 6.46376 30.4799 6.41704C31.0023 6.37033 31.2528 6.59966 31.049 6.96064C30.8451 7.32587 30.4799 7.87372 30.3652 8.32814C30.2506 8.78256 30.8451 8.94394 30.8451 9.1223C30.8451 9.30492 30.344 9.16902 29.9788 9.00764C29.6135 8.84626 29.3884 8.39184 29.4989 8.16676C29.6135 7.93742 30.5903 7.34711 30.5478 7.00311C30.5011 6.66336 30.0255 6.86721 29.4097 7.07106C28.7939 7.27491 28.5221 7.86948 28.5688 8.50651C28.6155 9.14354 29.1379 9.27944 29.0487 9.50877C28.9553 9.7381 28.229 9.35164 27.4986 9.1223C26.7681 8.89297 23.9227 8.80379 23.0606 8.80379C22.1942 8.80379 20.3298 8.78255 18.8944 9.1223C17.4589 9.4663 16.0702 10.2138 15.5691 11.0334C15.0679 11.8531 14.5668 11.7639 13.9765 11.7639C13.7089 11.7639 13.6835 11.8743 13.7344 12.0229C14.1846 12.4391 14.5626 12.5835 15 12.5835C15.4459 12.5835 15.5818 12.7194 15.5011 12.97C15.4247 13.2205 15.2421 13.3182 14.3587 13.4159L14.0699 13.4541C13.5178 13.5815 13.917 13.8109 13.917 13.9468C13.917 14.0827 13.5051 14.1846 13.3012 14.1634C13.1314 14.1464 12.8086 14.1634 12.6132 14.278C12.575 14.2993 12.541 14.3247 12.5156 14.3545C12.3584 14.5371 12.4136 14.6985 12.1971 14.8216C11.9805 14.949 11.4793 14.9363 11.1141 14.9575C10.7701 15.0637 10.4856 15.1571 10.3072 15.2633C9.80606 15.5606 9.71687 16.015 10.3964 16.2401C11.0801 16.4694 11.5813 16.4906 12.265 16.0575C12.3797 15.9853 12.4986 15.9131 12.6217 15.8494C12.8766 15.5266 12.8511 15.4544 12.6982 15.2166C12.541 14.966 12.7449 14.7622 13.246 14.8301C13.7472 14.8981 14.2016 15.2633 14.4734 15.1486C14.7452 15.034 14.4521 14.8768 14.5626 14.6475C14.6772 14.4182 15.1996 14.5328 15.722 14.6263C16.1509 14.6985 16.4439 14.9278 17.2084 15.0722C17.6331 15.0849 17.9898 15.0977 18.1809 15.0807C18.682 15.034 19.1365 15.0127 19.1577 14.7622C19.1789 14.5116 18.5886 14.3502 18.7925 14.0572C18.9963 13.7599 19.8075 13.7387 20.2067 13.8746C21.1877 14.2186 20.8055 15.0042 22.1008 15.1656C23.4003 15.327 24.237 15.034 25.2605 15.1953C26.284 15.3567 27.0357 15.5139 27.4688 15.7644C27.902 16.015 27.8086 16.4269 27.4688 16.5374C27.1291 16.652 26.6959 16.3547 26.1268 16.2868C25.5577 16.2188 25.4643 16.2656 25.4643 16.2656C25.4643 16.2656 24.9972 17.4887 23.7486 17.5057C22.3811 17.5226 22.122 16.737 22.139 15.9386C21.9819 15.7305 21.6718 15.7644 21.5742 16.0447C21.4807 16.3123 21.6888 16.7794 22.0371 17.1871C22.2197 17.3315 22.3853 17.4887 22.5042 17.6331C22.8015 17.9983 22.5042 18.5674 22.0711 18.0875C21.6379 17.6076 20.6908 16.8262 19.7395 16.5926C18.062 16.1806 16.1891 15.9513 15.6668 16.0829C15.6668 16.0829 15.2081 16.1679 14.7494 16.5544C14.3757 16.9111 14.2525 17.4037 13.7174 18.0153C12.919 18.9284 11.645 18.767 10.5747 18.9496C9.50453 19.1322 9.10107 19.9179 9.38986 21.0433C9.56823 21.7355 10.0354 22.2239 10.0354 22.2239C11.199 23.1498 12.6387 23.6679 12.9487 23.2559C13.0082 23.1795 13.0294 23.0903 13.0337 22.9926C12.919 22.5 12.1461 20.6356 13.6495 19.9986C15.1529 19.3615 15.6965 19.3615 17.0173 19.0897C18.338 18.8179 20.0708 18.4527 20.8904 18.4994C21.7101 18.5461 22.3471 18.8647 22.7591 18.682C23.171 18.4994 23.8505 18.682 24.1265 18.4994C24.3983 18.3168 24.7636 18.045 26.0844 18.045C27.4051 18.045 28.9085 18.3635 29.3162 17.9558C29.7282 17.5439 29.1803 17.5906 28.6325 17.5014C28.0846 17.4122 28.0422 16.635 29.0869 16.3632C30.1359 16.0872 29.8131 15.1316 28.8151 15.1316C27.8128 15.1316 27.0399 14.7664 25.6257 14.4946C24.2157 14.2228 24.5342 13.9468 23.3961 13.9043C22.2579 13.8576 22.6656 13.0379 24.2624 13.0379C25.855 13.0379 27.4519 13.0379 28.9085 12.2183C30.3652 11.3986 30.1401 10.4898 30.4587 9.89524C30.7772 9.30492 31.686 9.02887 32.4632 9.1223C33.2361 9.21149 35.1047 9.35164 37.1985 8.89297C39.2922 8.43856 39.6574 8.30266 40.3879 7.93743C41.1141 7.57219 41.6619 7.34286 41.526 8.20923C41.3986 9.01613 41.0376 9.61919 39.9972 10.5408L39.7466 10.7574L39.5937 10.889L37.534 12.6854C36.9564 13.1908 37.1985 15.5648 41.25 17.1319C42.7067 17.6968 43.2503 16.9366 43.6197 20.4997C43.6282 20.5804 43.6452 20.6568 43.675 20.7333C43.7556 21.5105 43.8024 22.2961 43.8024 23.0946C43.8024 35.1939 33.9963 45 21.8969 45C9.80606 45.017 0 35.2109 0 23.1115C0 11.0164 9.80606 1.21036 21.9054 1.21036C21.9054 1.21036 23.3748 1.20187 23.9609 1.20611C25.7871 1.21886 26.0801 0 26.0801 0L26.8828 0.110419C26.8828 0.110419 26.9932 0.730464 26.8446 2.08097C26.5345 4.93913 24.1265 6.5402 21.5529 6.49348H21.1198C11.1608 6.49348 3.08748 14.5668 3.08748 24.5258C3.08748 34.4252 11.0589 42.4603 20.9329 42.558C22.1263 42.4349 23.4301 42.0357 24.4408 41.0589C25.2307 40.1543 25.4431 39.0841 24.8145 38.2304C24.4451 37.7336 23.7868 37.415 22.9799 37.5509C22.2749 38.1582 21.451 39.2157 20.5592 40.3242C20.0113 41.0079 19.2809 41.4666 18.2786 41.2882C17.2763 41.1056 15.8239 40.4176 15.3228 39.8697C14.8216 39.3219 14.639 39.0968 13.8194 38.137C12.9997 37.1815 12.316 35.2237 12.5453 34.8117C12.7746 34.404 13.0464 34.404 14.0954 35.1769C15.1444 35.9499 15.2336 35.8607 15.5096 35.2237C15.7814 34.5866 15.1656 34.8117 15.5733 33.8094C15.981 32.8072 15.4374 31.032 15.4374 30.0764C15.4374 29.6645 15.395 29.1846 15.327 28.7896C15.3143 27.8511 16.393 27.4179 16.9026 27.3457C17.0385 27.3244 17.1192 27.4179 17.1617 27.4858C17.3103 28.7641 17.1277 31.6902 16.8007 32.6755C16.3887 33.9071 16.6223 34.5951 16.5968 35.0453C16.5501 35.8819 16.1424 36.0475 15.8239 36.3661C15.5054 36.6846 15.7305 37.3216 16.1891 37.5042C16.6435 37.6868 18.1469 38.3706 17.9219 37.9162C17.6925 37.4618 17.3995 36.7101 17.3995 36.1155C17.3995 35.5252 17.8539 35.6611 18.6268 36.3448C19.3615 36.9904 20.1982 36.3661 20.9286 36.2302C21.1198 36.1962 21.4892 35.9796 21.4935 35.3596C21.4935 35.1005 22.0116 34.6163 22.3046 34.68C22.5934 34.7438 22.9841 34.1534 23.3621 33.7203C24.7593 32.1404 24.4536 31.5416 23.3579 29.0317C22.7973 28.0337 22.2919 27.214 20.402 26.5728C19.077 26.1183 17.6968 26.1226 16.7072 26.3562C16.5798 26.3519 16.4397 26.3647 16.2995 26.4156C15.7517 26.6195 15.0934 27.2183 14.8896 28.4754C14.7749 29.1718 14.7282 29.7834 14.707 30.1231C14.6602 30.8069 14.2058 30.7135 13.7939 29.8513C13.3819 28.985 13.1101 27.299 13.1568 26.4368C13.2036 25.5705 12.6557 25.5705 12.0187 25.252C11.3816 24.9335 11.0631 25.2053 10.9272 24.7041C10.7913 24.2115 10.2562 24.5215 9.93346 24.2582ZM8.62967 20.8692C8.54898 20.4785 8.50226 19.4337 7.98839 19.0303C7.47027 18.6311 7.10079 18.6778 7.14751 19.3998C7.19422 20.126 7.30464 20.6101 7.79303 20.9286C8.27718 21.2557 8.71036 21.2557 8.62967 20.8692ZM8.26444 16.6223C8.26444 16.6223 8.06059 16.9196 8.21772 17.2848C8.3791 17.65 8.58295 17.4462 8.76557 17.7647C8.94818 18.0832 8.76557 18.3805 8.94818 18.5631C9.1308 18.7457 9.36013 18.4739 9.44932 18.1979C9.5385 17.9261 10.1543 18.1087 10.6342 18.2871C11.1098 18.4697 11.3859 18.1724 11.3604 17.6033C11.3392 17.0343 10.8593 16.6478 10.0609 16.376C9.2667 16.0999 8.60843 16.0787 8.26444 16.6223ZM29.6772 20.1387C29.9066 20.0283 30.1316 19.9434 30.327 19.9264C31.1934 19.8372 32.4674 19.9264 32.4207 18.9708L32.425 18.8647C32.2084 18.6098 31.6775 18.4867 30.7814 18.6948C29.2313 19.06 28.0931 19.2851 26.3179 19.2426C24.5427 19.1959 23.7231 19.1067 22.7208 19.7438C21.7186 20.3808 18.4867 20.6526 17.1192 21.2472C15.7517 21.8375 16.4822 22.5679 17.5736 22.5679C18.6651 22.5679 23.0393 21.6591 25.9994 20.9754C27.6302 20.5974 28.8448 20.3043 29.6772 20.1387Z" fill="white"/>
<path d="M52.9417 38.6339V37.8907H51.1963V38.6339H50.7461V37.4576H51.0774L51.5657 35.555H51.2727V35.1133H53.3579V35.555H53.0522V37.4576H53.4131V38.6339H52.9417ZM52.5765 35.555H52.0202L51.5488 37.4576H52.5723V35.555H52.5765Z" fill="white"/>
<path d="M55.2943 37.8911H54.207C53.8843 37.8911 53.7441 37.7 53.7441 37.458V35.6828C53.7441 35.309 53.9268 35.1179 54.3217 35.1179H55.2475C55.6298 35.1179 55.7826 35.2538 55.7826 35.6233V36.7317H54.2198V37.2668C54.2198 37.3773 54.2325 37.458 54.3854 37.458H55.1371C55.273 37.458 55.3027 37.3773 55.3027 37.2668V37.1182H55.7826V37.3815C55.7911 37.7 55.6637 37.8911 55.2943 37.8911ZM55.307 35.7295C55.307 35.6021 55.2688 35.5596 55.1584 35.5596H54.3854C54.2708 35.5596 54.2283 35.6275 54.2283 35.7125V36.3325H55.307V35.7295Z" fill="white"/>
<path d="M58.2924 36.0603H57.8592V35.555H57.4302V37.4576H57.7403V37.8907H56.6233V37.4576H56.9461V35.555H56.5172V36.0603H56.084V35.1133H58.2839V36.0603H58.2924Z" fill="white"/>
<path d="M59.018 37.891C58.6146 37.891 58.5254 37.7509 58.5254 37.3857V36.8208C58.5254 36.4981 58.6698 36.3154 59.0605 36.3154H60.1052V35.7039C60.1052 35.619 60.033 35.551 59.9481 35.551H59.2304C59.12 35.551 59.052 35.6444 59.052 35.7718V36.0352H58.5933V35.6275C58.5933 35.3047 58.7505 35.1221 59.1369 35.1221H60.0076C60.4535 35.1221 60.5809 35.3641 60.5809 35.6869V37.4621H60.8782V37.8953H59.018V37.891ZM60.1052 36.7401H59.1837C59.0265 36.7401 59.0053 36.8293 59.0053 36.961V37.2455C59.0053 37.3559 59.0223 37.4579 59.1837 37.4579H60.1052V36.7401Z" fill="white"/>
<path d="M63.5747 35.555H63.2816V37.4576H63.5747V37.8907H62.5002V37.4576H62.806V35.555H62.1604L61.8929 37.224C61.8377 37.5765 61.6253 37.8865 61.2771 37.8865H60.8906V37.4576H61.1794C61.3281 37.4576 61.413 37.3174 61.4342 37.1645L61.7103 35.555H61.4045V35.1133H63.5747V35.555Z" fill="white"/>
<path d="M65.6526 35.9754L64.6588 37.8907H63.8477V37.4576H64.1407V35.555H63.8477V35.1133H64.9136V35.555H64.6206V37.0286H64.6333L65.6271 35.1133H66.4383V35.555H66.1452V37.4576H66.4383V37.8907H65.3723V37.4576H65.6653V35.9754H65.6526Z" fill="white"/>
<path d="M69.0461 37.8911C68.6426 37.8911 68.5449 37.6576 68.5449 37.3858V35.6233C68.5449 35.3005 68.7233 35.1179 69.0885 35.1179H70.4136V35.9928H69.9804V35.5426H69.2074C69.0843 35.5426 69.0291 35.6318 69.0291 35.7677V37.2499C69.0291 37.3603 69.097 37.4622 69.2074 37.4622H70.0059V37.0885H70.439V37.8954H69.0461V37.8911Z" fill="white"/>
<path d="M72.5588 35.9754L71.5651 37.8907H70.7539V37.4576H71.0469V35.555H70.7539V35.1133H71.8199V35.555H71.5268V37.0286H71.5396L72.5333 35.1133H73.3445V35.555H73.0515V37.4576H73.3445V37.8907H72.2785V37.4576H72.5716V35.9754H72.5588Z" fill="white"/>
<path d="M74.2433 37.8911C73.8399 37.8911 73.7422 37.6576 73.7422 37.3858V35.6233C73.7422 35.3005 73.9206 35.1179 74.2858 35.1179H75.6108V35.9928H75.1776V35.5426H74.4047C74.2815 35.5426 74.2263 35.6318 74.2263 35.7677V37.2499C74.2263 37.3603 74.2943 37.4622 74.4047 37.4622H75.2031V37.0885H75.6363V37.8954H74.2433V37.8911Z" fill="white"/>
<path d="M78.0795 36.0603H77.6463V35.555H77.2174V37.4576H77.5274V37.8907H76.4104V37.4576H76.7332V35.555H76.3043V36.0603H75.8711V35.1133H78.071V36.0603H78.0795Z" fill="white"/>
<path d="M79.9739 37.8911H78.8867C78.564 37.8911 78.4238 37.7 78.4238 37.458V35.6828C78.4238 35.309 78.6064 35.1179 79.0014 35.1179H79.9272C80.3137 35.1179 80.4623 35.2538 80.4623 35.6233V36.7317H78.8995V37.2668C78.8995 37.3773 78.9122 37.458 79.0651 37.458H79.8168C79.9527 37.458 79.9824 37.3773 79.9824 37.2668V37.1182H80.4666V37.3815C80.4666 37.7 80.3392 37.8911 79.9739 37.8911ZM79.9867 35.7295C79.9867 35.6021 79.9485 35.5596 79.8423 35.5596H79.0693C78.9547 35.5596 78.9122 35.6275 78.9122 35.7125V36.3325H79.9909V35.7295H79.9867Z" fill="white"/>
<path d="M82.9378 37.8907V37.4576H83.2563V35.7631H83.2436L82.6108 37.241H82.2923L81.6213 35.7631H81.6085V37.4576H81.927V37.8907H80.8398V37.4576H81.1329V35.555H80.8398V35.1133H81.8039L82.4622 36.5912L83.0652 35.1133H84.0208V35.555H83.7277V37.4576H84.0208V37.8907H82.9378Z" fill="white"/>
<path d="M85.977 36.209C86.4102 36.209 86.4909 36.3789 86.4909 36.7144V37.3854C86.4909 37.6784 86.4442 37.8907 85.9898 37.8907H84.2995V37.4576H84.5841V35.555H84.291V35.1133H85.3655V35.555H85.0682V36.209H85.977ZM86.0068 36.8545C86.0068 36.7271 86.0068 36.6337 85.8284 36.6337H85.0682V37.4576H85.8284C86.0068 37.4576 86.0068 37.3471 86.0068 37.2452V36.8545ZM86.6693 35.555V35.1133H87.714V35.555H87.4167V37.4576H87.714V37.8907H86.6693V37.4576H86.9538V35.555H86.6693Z" fill="white"/>
<path d="M91.4128 37.8907H90.3808C89.9646 37.8907 89.8457 37.6911 89.8457 37.3769V35.6187C89.8457 35.3086 89.9986 35.1133 90.3808 35.1133H91.4043C91.8545 35.1133 91.9479 35.3086 91.9479 35.6187V37.3769C91.9479 37.6911 91.8715 37.8907 91.4128 37.8907ZM91.4723 35.7376C91.4723 35.6484 91.4468 35.555 91.3194 35.555H90.47C90.3468 35.555 90.3171 35.6441 90.3171 35.7376V37.2749C90.3171 37.3641 90.3214 37.4576 90.47 37.4576H91.3194C91.4468 37.4576 91.4723 37.3599 91.4723 37.2665V35.7376Z" fill="white"/>
<path d="M93.8093 37.8907V37.585L93.4271 36.9225L93.0491 37.585V37.8907H92.2422V37.4576H92.5947L93.1595 36.4638L92.6372 35.555H92.2847V35.1133H93.1001V35.4191L93.4313 35.9924L93.7541 35.4191V35.1133H94.5525V35.555H94.2L93.6946 36.4426L94.2722 37.4576H94.6247V37.8907H93.8093Z" fill="white"/>
<path d="M97.27 35.555H96.9769V37.4576H97.27V37.8907H96.1955V37.4576H96.5013V35.555H95.8558L95.5882 37.224C95.533 37.5765 95.3206 37.8865 94.9724 37.8865H94.5859V37.4576H94.8705C95.0191 37.4576 95.0998 37.3174 95.1295 37.1645L95.4013 35.555H95.0956V35.1133H97.2657V35.555H97.27Z" fill="white"/>
<path d="M98.1333 37.891C97.7298 37.891 97.6406 37.7509 97.6406 37.3857V36.8208C97.6406 36.4981 97.785 36.3154 98.1757 36.3154H99.2205V35.7039C99.2205 35.619 99.1483 35.551 99.0633 35.551H98.3414C98.2309 35.551 98.163 35.6444 98.163 35.7718V36.0352H97.7043V35.6275C97.7043 35.3047 97.8615 35.1221 98.2479 35.1221H99.1185C99.5645 35.1221 99.6919 35.3641 99.6919 35.6869V37.4621H99.9892V37.8953H98.1333V37.891ZM99.2162 36.7401H98.2946C98.1375 36.7401 98.1163 36.8293 98.1163 36.961V37.2455C98.1163 37.3559 98.1333 37.4579 98.2946 37.4579H99.2162V36.7401Z" fill="white"/>
<path d="M102.91 37.8907V37.4576H103.122V36.8842C103.122 36.7398 103.105 36.6464 102.944 36.6464H102.214V37.4576H102.532V37.8907H101.445V37.4576H101.763V36.6464H101.025C100.859 36.6464 100.842 36.7398 100.842 36.8842V37.4576H101.067V37.8907H100.086V37.4576H100.37V36.8248C100.37 36.5063 100.421 36.2684 100.974 36.2684H101.063L100.43 35.555H100.154V35.1133H101.135V35.555H100.982L101.738 36.3916H101.755V35.555H101.47V35.1133H102.502V35.555H102.209V36.3916H102.226L102.982 35.555H102.829V35.1133H103.81V35.555H103.534L102.902 36.2684H102.987C103.534 36.2684 103.585 36.4935 103.585 36.8248V37.4576H103.883V37.8907H102.91Z" fill="white"/>
<path d="M106.135 38.6339V37.8907H104.39V38.6339H103.939V37.4576H104.271L104.759 35.555H104.466V35.1133H106.551V35.555H106.246V37.4576H106.606V38.6339H106.135ZM105.766 35.555H105.209L104.738 37.4576H105.761V35.555H105.766Z" fill="white"/>
<path d="M108.486 37.8911H107.398C107.076 37.8911 106.936 37.7 106.936 37.458V35.6828C106.936 35.309 107.118 35.1179 107.513 35.1179H108.439C108.825 35.1179 108.974 35.2538 108.974 35.6233V36.7317H107.411V37.2668C107.411 37.3773 107.424 37.458 107.577 37.458H108.329C108.464 37.458 108.494 37.3773 108.494 37.2668V37.1182H108.974V37.3815C108.978 37.7 108.851 37.8911 108.486 37.8911ZM108.498 35.7295C108.498 35.6021 108.46 35.5596 108.354 35.5596H107.581C107.466 35.5596 107.424 35.6275 107.424 35.7125V36.3325H108.503V35.7295H108.498Z" fill="white"/>
<path d="M110.13 36.6761V37.4576H110.423V37.8907H109.357V37.4576H109.65V35.555H109.357V35.1133H110.423V35.555H110.13V36.2387H111.175V35.555H110.882V35.1133H111.948V35.555H111.655V37.4576H111.948V37.8907H110.882V37.4576H111.175V36.6761H110.13Z" fill="white"/>
<path d="M114.016 35.9754L113.022 37.8907H112.211V37.4576H112.504V35.555H112.211V35.1133H113.277V35.555H112.984V37.0286H112.997L113.99 35.1133H114.802V35.555H114.509V37.4576H114.802V37.8907H113.736V37.4576H114.029V35.9754H114.016Z" fill="white"/>
<path d="M117.193 35.5553V37.458H117.478V37.8911H116.425V37.458H116.709V36.6553H115.898C115.775 36.6553 115.741 36.7445 115.741 36.8761V37.4622H115.996V37.8954H114.93V37.458H115.265V36.8252C115.265 36.5873 115.38 36.4514 115.528 36.4302V36.409C115.384 36.3962 115.278 36.2476 115.278 36.0735V35.5596C115.278 35.2368 115.507 35.1179 115.796 35.1179H117.478V35.5596H117.193V35.5553ZM116.713 35.5553H115.906C115.758 35.5553 115.758 35.6445 115.758 35.755V36.065C115.758 36.1627 115.758 36.2646 115.936 36.2646H116.713V35.5553Z" fill="white"/>
</svg>
