<svg width="89" height="47" viewBox="0 0 89 47" fill="none" xmlns="http://www.w3.org/2000/svg">
<path d="M0 27.2206H9.25426L8.19975 47L23.8855 19.7694L14.6238 19.7794L15.7031 0L0 27.2206Z" fill="white"/>
<path d="M31.0366 19.6453C29.3131 19.6453 27.8656 19.1678 26.6967 18.2153C25.5278 17.2627 24.9434 15.957 24.9434 14.2982H26.6843C26.6843 15.4596 27.0872 16.3574 27.8905 16.9966C28.6938 17.6358 29.7433 17.9541 31.0366 17.9541C32.1309 17.9541 33.0461 17.6805 33.7848 17.1334C34.5234 16.5862 34.8915 15.8575 34.8915 14.9448C34.8915 14.0992 34.5607 13.4277 33.8967 12.9303C33.2326 12.4329 32.2627 11.9429 30.9869 11.463C29.2459 10.8163 28.0944 10.3015 27.5299 9.92099C26.1371 9.02566 25.4408 7.78214 25.4408 6.19044C25.4408 4.81511 25.9581 3.71086 26.9952 2.88268C28.0323 2.0545 29.2633 1.63916 30.6884 1.63916C32.213 1.63916 33.5037 2.08683 34.5557 2.98216C35.6078 3.87749 36.135 5.08868 36.135 6.61323H34.3941C34.3941 5.56868 34.0509 4.76039 33.362 4.18837C32.6731 3.61635 31.7827 3.33035 30.6884 3.33035C29.6936 3.33035 28.8604 3.58402 28.1889 4.08889C27.5174 4.59376 27.1817 5.2951 27.1817 6.19044C27.1817 7.08577 27.4975 7.77716 28.1268 8.26711C28.756 8.75706 29.7185 9.24949 31.0117 9.7469C32.785 10.4433 33.9713 10.983 34.5682 11.3635C35.9435 12.2588 36.6324 13.4526 36.6324 14.9448C36.6324 16.3549 36.0803 17.489 34.9785 18.352C33.8768 19.215 32.5611 19.6453 31.0366 19.6453Z" fill="white"/>
<path d="M48.4462 1.93774V3.57919H43.5965V19.347H41.8556V3.57919H37.0059V1.93774H43.5965H48.4462Z" fill="white"/>
<path d="M60.6586 19.347L59.0421 15.0693H50.7851L49.1685 19.347H47.3281L54.0183 1.93774H55.8089L62.499 19.347H60.6586ZM51.4069 13.4279H58.4203L54.9136 4.10147L51.4069 13.4279Z" fill="white"/>
<path d="M75.854 19.347L69.7359 12.3833H65.8562V19.347H64.1152V1.93774H65.8562H70.3328C71.7753 1.93774 73.0064 2.44759 74.0261 3.46727C75.0458 4.48696 75.5556 5.71804 75.5556 7.16052C75.5556 8.33689 75.195 9.39388 74.4737 10.3315C73.7525 11.2691 72.8373 11.8859 71.7256 12.1843L78.0426 19.347H75.854ZM65.8562 3.57919V10.7419H70.3328C71.2953 10.7419 72.116 10.3887 72.795 9.68486C73.474 8.98103 73.8147 8.13792 73.8147 7.16052C73.8147 6.16571 73.474 5.32011 72.795 4.62374C72.116 3.92737 71.2953 3.57919 70.3328 3.57919H65.8562Z" fill="white"/>
<path d="M88.1142 1.93774V3.57919H83.2645V19.347H81.5235V3.57919H76.6738V1.93774H83.2645H88.1142Z" fill="white"/>
<path d="M30.0121 44.8318L24.2422 26.3083H28.8731L32.7105 39.9373L36.548 26.3083H41.1789L35.409 44.8318H30.0121Z" fill="white"/>
<path d="M58.3029 42.4236C56.4327 44.2764 54.1571 45.2016 51.476 45.2016C48.795 45.2016 46.5194 44.2764 44.6491 42.4236C42.7789 40.5707 41.8438 38.2876 41.8438 35.5693C41.8438 32.8535 42.7789 30.5679 44.6491 28.715C46.5194 26.8622 48.795 25.937 51.476 25.937C54.1571 25.937 56.4327 26.8622 58.3029 28.715C60.1732 30.5679 61.1083 32.851 61.1083 35.5693C61.1058 38.2851 60.1707 40.5707 58.3029 42.4236ZM47.6236 39.5386C48.6557 40.5633 49.9391 41.0731 51.4736 41.0731C53.0081 41.0731 54.2914 40.5608 55.3235 39.5386C56.3556 38.5164 56.8704 37.1933 56.8704 35.5693C56.8704 33.9453 56.3531 32.6222 55.3235 31.6C54.2914 30.5778 53.0081 30.0655 51.4736 30.0655C49.9391 30.0655 48.6557 30.5778 47.6236 31.6C46.5915 32.6222 46.0767 33.9453 46.0767 35.5693C46.0767 37.1933 46.5915 38.5164 47.6236 39.5386Z" fill="white"/>
<path d="M68.3814 40.7546H74.7333V44.8308H64.1484V26.3074H68.3814V40.7546Z" fill="white"/>
<path d="M88.0953 26.3072V30.3809H83.8623V44.8281H79.6294V30.3809H75.3965V26.3047H83.8648H88.0953V26.3072Z" fill="white"/>
</svg>
