<svg width="79" height="45" viewBox="0 0 79 45" fill="none" xmlns="http://www.w3.org/2000/svg">
<path d="M69.7129 7.49146V10.649V34.1756V37.3331C70.8892 37.0855 72.0656 36.8997 73.2419 36.6521V33.4946V11.33V8.17247C72.0656 7.92483 70.8892 7.67719 69.7129 7.49146Z" fill="white"/>
<path d="M30.0273 5.20062V8.35815V36.5901V39.7476C31.2037 39.8095 32.38 39.8715 33.5563 39.8715V36.7139V8.1724V5.01489C32.38 5.0768 31.2037 5.13871 30.0273 5.20062Z" fill="white"/>
<path d="M54.6052 36.1569V8.66787V5.51034C53.4288 5.44843 52.2525 5.32461 51.0762 5.2627V8.42022V36.4045V39.5621C52.2525 39.5002 53.4288 39.3763 54.6052 39.3144C55.9053 39.1906 57.2055 39.0668 58.4437 38.9429V35.7854C57.2055 35.9712 55.9053 36.095 54.6052 36.1569Z" fill="white"/>
<path d="M63.8923 35.1661V9.78206V6.62454C62.716 6.4388 61.5396 6.31499 60.3633 6.19116V9.34869V35.6614V38.8189C61.5396 38.6951 62.716 38.5093 63.8923 38.3855C65.1924 38.1998 66.4926 38.014 67.7308 37.7664V34.6089C66.4926 34.7327 65.2544 34.9803 63.8923 35.1661Z" fill="white"/>
<path d="M10.7724 7.24373C9.59612 7.42947 8.4198 7.67712 7.24346 7.86285C6.19096 8.04859 5.13845 8.29624 4.08594 8.54389V11.7014C5.13845 11.4538 6.19096 11.268 7.24346 11.0204V33.9279V37.0854C8.4198 37.3331 9.59612 37.5188 10.7724 37.7045V34.547V10.3393C11.825 10.1536 12.8775 10.0298 13.93 9.84405V6.68652C12.8156 6.93417 11.763 7.05799 10.7724 7.24373Z" fill="white"/>
<path d="M42.3488 4.27211C39.2532 4.21019 36.7148 6.74859 36.7148 9.8442V36.8379V39.9955C37.4578 39.9955 38.2626 39.9955 39.0675 39.9955C39.439 39.9955 39.8724 39.9955 40.2438 39.9955V36.8379V26.3748H44.4539V36.776V39.9335C45.6302 39.9335 46.8065 39.8716 47.9829 39.8097V36.6522V9.8442C47.9829 6.81051 45.5683 4.33402 42.5346 4.27211C42.4727 4.27211 42.4108 4.27211 42.3488 4.27211ZM40.2438 22.4743V10.2157C40.2438 9.03935 41.1725 8.11067 42.3488 8.11067C42.3488 8.11067 42.3488 8.11067 42.4108 8.11067C43.5252 8.11067 44.4539 9.03935 44.4539 10.2157V22.4743H40.2438Z" fill="white"/>
<path d="M26.8711 18.945V9.16285C26.8711 7.11974 25.1376 5.51002 23.0945 5.69576C22.9088 5.69576 22.723 5.69576 22.5992 5.75767C21.299 5.8815 20.8038 5.94341 19.5036 6.06723C18.3273 6.19106 17.1509 6.31489 15.9746 6.50063V9.65815V22.5359V35.4755V38.6331C17.1509 38.7569 18.3273 38.9426 19.5036 39.0665V35.9089V24.3933H20.9276C22.2897 24.3933 23.4041 25.5077 23.4041 26.8697V36.1566V39.3141C24.5804 39.4379 25.7567 39.4998 26.9331 39.5618V36.4042V25.9411C26.9331 24.2694 25.7567 22.8455 24.2089 22.5359V22.3502C25.7567 22.0406 26.8711 20.6166 26.8711 18.945ZM23.4041 18.0782C23.4041 19.4403 22.2897 20.5547 20.9276 20.5547H19.5036V9.22476C20.1227 9.16285 20.8038 9.10094 21.4229 9.03903C22.4754 8.91521 23.3422 9.72006 23.3422 10.7726L23.4041 18.0782Z" fill="white"/>
<path d="M77.0807 4.08621C66.4318 1.54781 53.4922 0 39.5 0C25.5078 0 12.5682 1.4859 1.91928 4.08621C1.23825 4.21003 0.619122 4.39576 0 4.5815V6.31504V38.5713V40.3049C0.619122 40.4906 1.30016 40.6144 1.91928 40.8001C12.5682 43.3386 25.5078 44.8864 39.5 44.8864C53.4922 44.8864 66.4318 43.4005 77.0807 40.8001C77.6998 40.6763 78.3809 40.4906 79 40.3049V38.5713V6.31504V4.5815C78.3809 4.45768 77.7617 4.27195 77.0807 4.08621ZM77.0807 39.0666C66.4318 41.605 53.4922 43.1528 39.5 43.1528C25.5078 43.1528 12.5682 41.6669 1.91928 39.0666V5.88166C12.5682 3.34326 25.5078 1.79545 39.5 1.79545C53.4922 1.79545 66.4318 3.28135 77.0807 5.88166V39.0666Z" fill="white"/>
</svg>
