<svg id="Layer_1" data-name="Layer 1" xmlns="http://www.w3.org/2000/svg" viewBox="0 0 18 24"><path d="M17.3,4.59,13.41.66A2.3,2.3,0,0,0,11.81,0H2.25A2.25,2.25,0,0,0,0,2.25v19.5A2.22,2.22,0,0,0,2.25,24h13.5A2.25,2.25,0,0,0,18,21.75V6.19A2.41,2.41,0,0,0,17.3,4.59Zm-1,1.08a1.21,1.21,0,0,1,.18.33H12V1.55a1.21,1.21,0,0,1,.33.18ZM15.75,22.5H2.25a.74.74,0,0,1-.75-.75V2.25a.78.78,0,0,1,.75-.75H10.5V6.38A1.08,1.08,0,0,0,11.63,7.5H16.5V21.75A.77.77,0,0,1,15.75,22.5Zm-1-8c-.66-.6-2.58-.42-3.47-.28a5.1,5.1,0,0,1-2.11-2.67,6.76,6.76,0,0,0,.28-3,1.08,1.08,0,0,0-2.06-.32,7.67,7.67,0,0,0,.37,3.65c-.56,1.32-1.4,3.14-2,4.17-1,.47-2.54,1.36-2.77,2.44-.14.8,1.08,1.83,2.48.28a9.88,9.88,0,0,0,1.46-2.11,27.28,27.28,0,0,1,3.84-1.12,7.29,7.29,0,0,0,3.05.94A1.16,1.16,0,0,0,14.72,14.48ZM3.94,18.66a7,7,0,0,1,1.69-1.93C4.59,18.42,3.94,18.7,3.94,18.66ZM8.44,8.25c.37,0,.33,1.73.09,2.25A4.12,4.12,0,0,1,8.44,8.25ZM7.08,15.7a28.79,28.79,0,0,0,1.36-2.95,6.67,6.67,0,0,0,1.64,1.92A21.81,21.81,0,0,0,7.08,15.7Zm7.22-.28s-.28.33-2.07-.42C14.16,14.86,14.48,15.33,14.3,15.42Z"/></svg>