<svg width="24" height="25" viewBox="0 0 24 25" fill="none" xmlns="http://www.w3.org/2000/svg">
<path d="M12 4.5C9.51562 4.5 7.5 6.5625 7.5 9C7.5 11.4844 9.51562 13.5 12 13.5C14.4375 13.5 16.5 11.4844 16.5 9C16.5 6.5625 14.4375 4.5 12 4.5ZM12 12C10.3125 12 9 10.6875 9 9C9 7.35938 10.3125 6 12 6C13.6406 6 15 7.35938 15 9C15 10.6875 13.6406 12 12 12ZM12 0C6.98438 0 3 4.03125 3 9C3 12.6562 4.21875 13.6875 11.0625 23.5312C11.4844 24.1875 12.4688 24.1875 12.8906 23.5312C19.7344 13.6875 21 12.6562 21 9C21 4.03125 16.9688 0 12 0ZM12 22.2188C5.4375 12.7969 4.5 12.0469 4.5 9C4.5 7.03125 5.25 5.15625 6.65625 3.70312C8.10938 2.29688 9.98438 1.5 12 1.5C13.9688 1.5 15.8438 2.29688 17.2969 3.70312C18.7031 5.15625 19.5 7.03125 19.5 9C19.5 12.0469 18.5156 12.7969 12 22.2188Z" fill="#2E2A25"/>
</svg>
