<svg id="Layer_1" data-name="Layer 1" xmlns="http://www.w3.org/2000/svg" viewBox="0 0 17.5 20"><path d="M16.91,2.58l-2-2A2.13,2.13,0,0,0,13.59,0H6.88A1.88,1.88,0,0,0,5,1.88V3.75H1.88A1.88,1.88,0,0,0,0,5.63v12.5A1.85,1.85,0,0,0,1.88,20h8.75a1.87,1.87,0,0,0,1.87-1.87V16.25h3.13a1.87,1.87,0,0,0,1.87-1.87V3.91A2.13,2.13,0,0,0,16.91,2.58ZM13.75,1.29a.84.84,0,0,1,.27.16l2,2a.84.84,0,0,1,.16.27H13.75Zm-2.5,16.84a.64.64,0,0,1-.62.62H1.88a.61.61,0,0,1-.63-.62V5.63A.64.64,0,0,1,1.88,5H5v9.38a1.85,1.85,0,0,0,1.88,1.87h4.37Zm5-3.75a.64.64,0,0,1-.62.62H6.88a.61.61,0,0,1-.63-.62V1.88a.64.64,0,0,1,.63-.63H12.5V4.06a.9.9,0,0,0,.94.94h2.81Z"/></svg>