<svg xmlns="http://www.w3.org/2000/svg" viewBox="0 0 40.01 8.16">
    
    <path class="cls-1"
        d="M1.61,1.42V6.59H3.13A1.63,1.63,0,0,0,4.76,5.44,4.08,4.08,0,0,0,5,3.93a3.74,3.74,0,0,0-.38-1.86,1.62,1.62,0,0,0-1.51-.65ZM3.41.05A4.24,4.24,0,0,1,4.64.22,2.61,2.61,0,0,1,6,1.22,3.5,3.5,0,0,1,6.55,2.5,6.2,6.2,0,0,1,6.7,3.81a5.19,5.19,0,0,1-.64,2.68A2.86,2.86,0,0,1,3.41,8H0V.05ZM11,2h.2V3.55l-.26,0h-.18a1.25,1.25,0,0,0-1.24.61,2.28,2.28,0,0,0-.18,1V8H7.81V2.11H9.27v1a3.15,3.15,0,0,1,.62-.8A1.67,1.67,0,0,1,11,2Zm2.68-.56H12.13V0h1.56Zm-1.56.7h1.56V8H12.13Zm6.65,0h1.65L18.32,8H16.7L14.6,2.11h1.72l1.22,4.32Zm4.83,1.11a1.06,1.06,0,0,0-.83.33,1.69,1.69,0,0,0-.37.9h2.38a1.32,1.32,0,0,0-.37-.92A1.12,1.12,0,0,0,23.61,3.22Zm0-1.26a3.1,3.1,0,0,1,1.31.27,2.35,2.35,0,0,1,1,.86,2.83,2.83,0,0,1,.44,1.21,7.36,7.36,0,0,1,.05,1.16h-4a1.45,1.45,0,0,0,.55,1.24,1.34,1.34,0,0,0,.76.22,1.1,1.1,0,0,0,.77-.27,1.24,1.24,0,0,0,.28-.4h1.57a1.93,1.93,0,0,1-.54,1,2.68,2.68,0,0,1-2.11.86,3,3,0,0,1-2-.72,2.9,2.9,0,0,1-.86-2.34,3.26,3.26,0,0,1,.77-2.33A2.67,2.67,0,0,1,23.61,2Zm3.78,4.4H29V8H27.39ZM33.66,2h.2V3.55l-.25,0h-.19a1.26,1.26,0,0,0-1.24.61,2.45,2.45,0,0,0-.17,1V8H30.46V2.11h1.47v1a3.17,3.17,0,0,1,.61-.8A1.69,1.69,0,0,1,33.66,2Zm2.63.14V5.64a1.83,1.83,0,0,0,.12.75.81.81,0,0,0,.82.45,1.08,1.08,0,0,0,1.08-.64,2.28,2.28,0,0,0,.15-.9V2.11H40V8H38.52V7.14l-.11.16a.91.91,0,0,1-.2.24,2.18,2.18,0,0,1-.7.44,2.57,2.57,0,0,1-.78.11A1.75,1.75,0,0,1,35,7.16a3.52,3.52,0,0,1-.26-1.52V2.11Z" />
</svg>