<svg xmlns="http://www.w3.org/2000/svg" viewBox="0 0 17.26 18.79">
    
    <path 
        d="M17.2,5.55a7.24,7.24,0,0,0-.4-2.31,4.8,4.8,0,0,0-1-1.66A4.53,4.53,0,0,0,14.28.49a5.83,5.83,0,0,0-2.1-.43C11.26,0,11,0,8.63,0S6,0,5.07.06A5.83,5.83,0,0,0,3,.49,4.53,4.53,0,0,0,1.45,1.58a4.8,4.8,0,0,0-1,1.66A7.34,7.34,0,0,0,.05,5.51c0,1,0,1.32,0,3.87s0,2.87.05,3.86a7.35,7.35,0,0,0,.41,2.28,4.89,4.89,0,0,0,1,1.66A4.5,4.5,0,0,0,3,18.26a5.67,5.67,0,0,0,2.09.47c.93.05,1.22.06,3.56.06s2.64,0,3.55-.06a5.64,5.64,0,0,0,2.1-.44,4.5,4.5,0,0,0,1.53-1.08,4.89,4.89,0,0,0,1-1.66,7.34,7.34,0,0,0,.4-2.28c.05-1,.06-1.32.06-3.86S17.26,6.54,17.2,5.55ZM8.62,14.19A4.64,4.64,0,0,1,4.19,9.37,4.63,4.63,0,0,1,8.62,4.56,4.22,4.22,0,0,1,11.75,6a5.11,5.11,0,0,1,0,6.81A4.25,4.25,0,0,1,8.62,14.19ZM13.23,5.5a1.08,1.08,0,0,1-1-1.12A1.25,1.25,0,0,1,12.27,4a1.11,1.11,0,0,1,.23-.36,1,1,0,0,1,.33-.25,1.1,1.1,0,0,1,.4-.08,1,1,0,0,1,.39.08,1,1,0,0,1,.34.25,1.09,1.09,0,0,1,.22.36,1.26,1.26,0,0,1,.08.43A1.08,1.08,0,0,1,13.23,5.5Z" />
    <path 
        d="M8.62,12.5A3,3,0,0,0,11.5,9.37,3,3,0,0,0,8.62,6.24,3,3,0,0,0,5.74,9.37,3,3,0,0,0,8.62,12.5Z" />
</svg>