<svg id="Layer_1" data-name="Layer 1" xmlns="http://www.w3.org/2000/svg" viewBox="0 0 24 18"><path d="M1.5,7.5A1.51,1.51,0,0,0,0,9a1.49,1.49,0,0,0,1.5,1.5A1.49,1.49,0,0,0,3,9,1.51,1.51,0,0,0,1.5,7.5ZM1.5,0A1.51,1.51,0,0,0,0,1.5,1.49,1.49,0,0,0,1.5,3,1.49,1.49,0,0,0,3,1.5,1.51,1.51,0,0,0,1.5,0Zm0,15A1.51,1.51,0,0,0,0,16.5,1.49,1.49,0,0,0,1.5,18,1.49,1.49,0,0,0,3,16.5,1.51,1.51,0,0,0,1.5,15ZM23.63.75H6.38A.37.37,0,0,0,6,1.13v.75a.34.34,0,0,0,.38.37H23.63A.37.37,0,0,0,24,1.88V1.13A.41.41,0,0,0,23.63.75Zm0,7.5H6.38A.37.37,0,0,0,6,8.63v.75a.34.34,0,0,0,.38.37H23.63A.37.37,0,0,0,24,9.38V8.63A.41.41,0,0,0,23.63,8.25Zm0,7.5H6.38a.37.37,0,0,0-.38.38v.75a.34.34,0,0,0,.38.37H23.63a.37.37,0,0,0,.37-.37v-.75A.41.41,0,0,0,23.63,15.75Z"/></svg>