<svg id="Layer_1" data-name="Layer 1" xmlns="http://www.w3.org/2000/svg" viewBox="0 0 22.5 17.5"><path d="M20.63,0H4.38A1.88,1.88,0,0,0,2.5,1.88V2.5H1.88A1.88,1.88,0,0,0,0,4.38V15.63A1.85,1.85,0,0,0,1.88,17.5H18.13A1.87,1.87,0,0,0,20,15.63V15h.63a1.87,1.87,0,0,0,1.87-1.87V1.88A1.9,1.9,0,0,0,20.63,0ZM18.75,15.63a.64.64,0,0,1-.62.62H1.88a.61.61,0,0,1-.63-.62V4.38a.64.64,0,0,1,.63-.63H2.5v9.38A1.85,1.85,0,0,0,4.38,15H18.75Zm2.5-2.5a.64.64,0,0,1-.62.62H4.38a.61.61,0,0,1-.63-.62V1.88a.64.64,0,0,1,.63-.63H20.63a.67.67,0,0,1,.62.63ZM6.88,6.56A2.2,2.2,0,0,0,9.06,4.38,2.23,2.23,0,0,0,6.88,2.19,2.2,2.2,0,0,0,4.69,4.38,2.17,2.17,0,0,0,6.88,6.56Zm0-3.12a1,1,0,0,1,.93.94.92.92,0,0,1-.93.93.9.9,0,0,1-.94-.93A.93.93,0,0,1,6.88,3.44Zm9.37.94a.84.84,0,0,0-1.29,0L11.25,8.09,10,6.88a.84.84,0,0,0-1.29,0L5.27,10.31a1,1,0,0,0-.27.63V12a.46.46,0,0,0,.47.47H19.53A.48.48,0,0,0,20,12V8.44a.84.84,0,0,0-.31-.63Zm2.5,6.87H6.25v-.16L9.38,8l1.87,1.87,4.38-4.37,3.12,3.12Z"/></svg>