<svg id="Layer_1" data-name="Layer 1" xmlns="http://www.w3.org/2000/svg" viewBox="0 0 23.12 13.75"><defs><style>.cls-1{fill:#4982c0;}</style></defs><path class="cls-1" d="M22.6,1a7.8,7.8,0,0,1-1,2.14c-.43.73-.95,1.55-1.55,2.5-.51.77-.81,1.16-.81,1.16a1.28,1.28,0,0,0-.26.6.74.74,0,0,0,.26.51l.38.43q3.11,3.23,3.48,4.39a.84.84,0,0,1-.12.81,1,1,0,0,1-.74.26H19.68a1.27,1.27,0,0,1-.86-.3,4.22,4.22,0,0,1-.95-.9,14.61,14.61,0,0,0-1.16-1.29c-1.16-1.08-2-1.63-2.53-1.63a.81.81,0,0,0-.52.12,1,1,0,0,0-.12.56,8.21,8.21,0,0,0,0,1.33v1.12a.85.85,0,0,1-.26.73,3.08,3.08,0,0,1-1.54.26,7.87,7.87,0,0,1-4.08-1.2A11,11,0,0,1,4,9.11a21.29,21.29,0,0,1-2.45-4A21.31,21.31,0,0,1,.3,2.23,5.72,5.72,0,0,1,0,.73C0,.26.26,0,.86,0H3.39a1.13,1.13,0,0,1,.69.21A2.25,2.25,0,0,1,4.51,1,19.53,19.53,0,0,0,6,4.34,12.12,12.12,0,0,0,7.52,6.79c.52.64.9.94,1.2.94a.36.36,0,0,0,.35-.17,1.6,1.6,0,0,0,.13-.77V3.05a3.47,3.47,0,0,0-.31-1.2,5.91,5.91,0,0,0-.43-.65,1,1,0,0,1-.3-.6A.56.56,0,0,1,8.34.17.92.92,0,0,1,8.81,0h4a.62.62,0,0,1,.52.21,1.52,1.52,0,0,1,.17.74v5a.94.94,0,0,0,.13.56.32.32,0,0,0,.3.17,1,1,0,0,0,.47-.13,2.61,2.61,0,0,0,.69-.64,16.75,16.75,0,0,0,1.63-2.24,20.51,20.51,0,0,0,1.08-2.06l.43-.86A1.07,1.07,0,0,1,19.29,0h2.54C22.52,0,22.77.34,22.6,1Z"/></svg>