<svg id="Layer_1" data-name="Layer 1" xmlns="http://www.w3.org/2000/svg" viewBox="0 0 18 24"><path d="M17.3,4.59,13.41.66A2.3,2.3,0,0,0,11.81,0H2.25A2.25,2.25,0,0,0,0,2.25v19.5A2.22,2.22,0,0,0,2.25,24h13.5A2.25,2.25,0,0,0,18,21.75V6.19A2.41,2.41,0,0,0,17.3,4.59Zm-1,1.08a1.21,1.21,0,0,1,.18.33H12V1.55a1.21,1.21,0,0,1,.33.18ZM15.75,22.5H2.25a.74.74,0,0,1-.75-.75V2.25a.78.78,0,0,1,.75-.75H10.5V6.38A1.08,1.08,0,0,0,11.63,7.5H16.5V21.75A.77.77,0,0,1,15.75,22.5ZM13.5,11.06a.6.6,0,0,0-.56-.56H5.06a.57.57,0,0,0-.56.56v.38a.54.54,0,0,0,.56.56h7.88a.57.57,0,0,0,.56-.56Zm0,3a.6.6,0,0,0-.56-.56H5.06a.57.57,0,0,0-.56.56v.38a.54.54,0,0,0,.56.56h7.88a.57.57,0,0,0,.56-.56Zm0,3a.6.6,0,0,0-.56-.56H5.06a.57.57,0,0,0-.56.56v.38a.54.54,0,0,0,.56.56h7.88a.57.57,0,0,0,.56-.56Z"/></svg>