<svg id="Layer_1" data-name="Layer 1" xmlns="http://www.w3.org/2000/svg" viewBox="0 0 10 10"><path d="M8.44,6.25H7.81a.33.33,0,0,0-.31.31V8.75H1.25V2.5H4.06a.33.33,0,0,0,.32-.31V1.56a.34.34,0,0,0-.32-.31H.94A.94.94,0,0,0,0,2.19V9.06A.93.93,0,0,0,.94,10H7.81a.94.94,0,0,0,.94-.94V6.56A.34.34,0,0,0,8.44,6.25ZM9.26,0H6.17a.54.54,0,0,0-.54.55V.92a.52.52,0,0,0,.52.53h0l1.33,0L2.64,6.25a.52.52,0,0,0-.16.33.54.54,0,0,0,.16.33l.45.45h0a.43.43,0,0,0,.31.14.46.46,0,0,0,.33-.14L8.59,2.5l0,1.33a.54.54,0,0,0,.55.55h.35A.55.55,0,0,0,10,3.83V.74A.74.74,0,0,0,9.26,0Z"/></svg>