<svg width="46" height="46" viewBox="0 0 46 46" fill="none" xmlns="http://www.w3.org/2000/svg">
<circle cx="23" cy="23" r="22.5" fill="white" stroke="#2E2A25"/>
<path d="M33.2656 22.625L32.9375 22.2969C32.7031 22.0625 32.375 22.0625 32.1406 22.2969L23.7969 30.6406L23.7969 13.0625C23.7969 12.7344 23.5156 12.5 23.2344 12.5L22.7656 12.5C22.4375 12.5 22.2031 12.7344 22.2031 13.0625L22.2031 30.6406L13.8125 22.2969C13.5781 22.0625 13.25 22.0625 13.0156 22.2969L12.6875 22.625C12.4531 22.8594 12.4531 23.1875 12.6875 23.4219L22.5781 33.3125C22.8125 33.5469 23.1406 33.5469 23.375 33.3125L33.2656 23.4219C33.5 23.1875 33.5 22.8594 33.2656 22.625Z" fill="#2E2A25"/>
</svg>
