<svg id="Layer_1" data-name="Layer 1" xmlns="http://www.w3.org/2000/svg" viewBox="0 0 13.2 22.04"><defs><style>.cls-1{fill:#e97239;}</style></defs><path class="cls-1" d="M11.54,14.35A6.09,6.09,0,0,0,13,13.15a1.3,1.3,0,0,0,0-1.33,1.41,1.41,0,0,0-.86-.69,1.84,1.84,0,0,0-1.5.43l-.52.34a7.59,7.59,0,0,1-1.37.6,7.51,7.51,0,0,1-2.19.3,7.18,7.18,0,0,1-2.2-.3A6.53,6.53,0,0,1,3,11.9l-.52-.34a1.83,1.83,0,0,0-1.46-.43,1.17,1.17,0,0,0-.86.69,1.26,1.26,0,0,0,0,1.33,5.34,5.34,0,0,0,1.46,1.2,8.67,8.67,0,0,0,3.91,1.16L1.4,19.68A1.1,1.1,0,0,0,1.05,21a1.46,1.46,0,0,0,1,.94,1.13,1.13,0,0,0,1.29-.3L6.6,18.35l3.3,3.31a1.08,1.08,0,0,0,1.25.3,1.62,1.62,0,0,0,1-1,1.23,1.23,0,0,0-.3-1.29L7.67,15.51A9,9,0,0,0,11.54,14.35ZM1,5.59a5.18,5.18,0,0,0,.73,2.79,5.86,5.86,0,0,0,2.06,2,5.28,5.28,0,0,0,2.8.73,5.39,5.39,0,0,0,2.79-.73,5.75,5.75,0,0,0,2-2,5.3,5.3,0,0,0,.77-2.79,5.31,5.31,0,0,0-.77-2.8,5.75,5.75,0,0,0-2-2A5.43,5.43,0,0,0,6.6,0,5.31,5.31,0,0,0,3.8.77a5.86,5.86,0,0,0-2.06,2A5.19,5.19,0,0,0,1,5.59Zm2.84,0a2.5,2.5,0,0,1,.81-1.94A2.69,2.69,0,0,1,6.6,2.84a2.82,2.82,0,0,1,1.93.81,2.69,2.69,0,0,1,0,3.87,2.74,2.74,0,0,1-1.93.77,2.61,2.61,0,0,1-1.94-.77A2.5,2.5,0,0,1,3.85,5.59Z"/></svg>