<svg id="Layer_1" data-name="Layer 1" xmlns="http://www.w3.org/2000/svg" viewBox="0 0 24.04 24.02"><path d="M23.33,4.59,19.44.7A2.36,2.36,0,0,0,17.85,0H8.29A2.29,2.29,0,0,0,6,2.3V7.78a4,4,0,0,1-1.18-.23H4.63A.9.9,0,0,0,4,7.78,2.78,2.78,0,0,1,2.05,9a.92.92,0,0,0-.65.66,2.82,2.82,0,0,1-1.13,2,1,1,0,0,0-.23.94,2.76,2.76,0,0,1,0,2.25,1,1,0,0,0,.23.93,2.93,2.93,0,0,1,1.13,2,.92.92,0,0,0,.65.66.42.42,0,0,0,.24.05v4.87a.72.72,0,0,0,.32.66.83.83,0,0,0,.75,0L6,22.59,8.66,24A1,1,0,0,0,9,24H21.79A2.24,2.24,0,0,0,24,21.8V6.19A2.42,2.42,0,0,0,23.33,4.59ZM18,1.55a1,1,0,0,1,.32.18L22.3,5.67a1,1,0,0,1,.19.38H18ZM1.58,14.86a4.22,4.22,0,0,0,0-2.44,3.89,3.89,0,0,0,1.17-2.11A3.59,3.59,0,0,0,4.82,9.09a3.85,3.85,0,0,0,2.39,0,3.44,3.44,0,0,0,2.06,1.22,3.78,3.78,0,0,0,1.17,2.11,3.65,3.65,0,0,0,0,2.44A4,4,0,0,0,9.27,17a3.84,3.84,0,0,0-1.78.89A3.78,3.78,0,0,0,6,17.58a3.09,3.09,0,0,0-1.5.33A3.85,3.85,0,0,0,2.75,17,3.81,3.81,0,0,0,1.58,14.86Zm4.78,6.23a.94.94,0,0,0-.7,0l-1.87,1V19.27a.85.85,0,0,0,.61.23,2.38,2.38,0,0,0,.51-.09A1.84,1.84,0,0,1,6,19.08a2.11,2.11,0,0,1,1.07.28.74.74,0,0,0,.52.14.81.81,0,0,0,.61-.23l0-.05v2.86Zm16.18.71a.81.81,0,0,1-.75.75h-12V18.38a.32.32,0,0,0,.18-.05.94.94,0,0,0,.66-.66,2.77,2.77,0,0,1,1.12-2,1,1,0,0,0,.24-.93,2.68,2.68,0,0,1,0-2.25,1,1,0,0,0-.24-.94,2.88,2.88,0,0,1-1.12-2A.94.94,0,0,0,10,9,2.9,2.9,0,0,1,8,7.78a1,1,0,0,0-.46-.23V2.3a.78.78,0,0,1,.75-.8h8.25V6.42A1.07,1.07,0,0,0,17.66,7.5h4.88Z"/></svg>