<svg id="Layer_1" data-name="Layer 1" xmlns="http://www.w3.org/2000/svg" viewBox="0 0 21.98 21.98"><defs><style>.cls-1{fill:#9a9a9a;}</style></defs><path class="cls-1" d="M13.5,8.48A6.31,6.31,0,0,0,12,7.36a.54.54,0,0,0-.61.13l-.17.17A2,2,0,0,0,10.54,9a.59.59,0,0,0,.26.56,3.19,3.19,0,0,1,1,.68,3.61,3.61,0,0,1,0,5.12L8.56,18.53a3.61,3.61,0,0,1-5.11-5.11l2-2A.46.46,0,0,0,5.55,11c-.08-.43-.17-1.16-.21-1.64A.51.51,0,0,0,4.48,9L1.77,11.7a6,6,0,0,0,8.51,8.51,47.46,47.46,0,0,0,3.61-3.7A6,6,0,0,0,13.5,8.48Zm6.71-6.71a6,6,0,0,0-8.51,0C8.17,5.3,8.35,5.12,8.09,5.47a6,6,0,0,0,.39,8A6.12,6.12,0,0,0,10,14.62a.52.52,0,0,0,.6-.13l.18-.17A2,2,0,0,0,11.44,13a.61.61,0,0,0-.26-.56,3.21,3.21,0,0,1-1-.69,3.62,3.62,0,0,1,0-5.11l3.23-3.22a3.61,3.61,0,0,1,5.11,5.11l-2,2a.49.49,0,0,0-.13.47,16.43,16.43,0,0,1,.22,1.63.51.51,0,0,0,.86.35l2.71-2.71A6,6,0,0,0,20.21,1.77Z"/></svg>