<svg id="Layer_1" data-name="Layer 1" xmlns="http://www.w3.org/2000/svg" viewBox="0 0 22 17.88"><defs><style>.cls-1{fill:#1dadeb;}</style></defs><path class="cls-1" d="M19.72,4.47A10,10,0,0,0,22,2.11a8.64,8.64,0,0,1-2.58.73,4.59,4.59,0,0,0,2-2.5,8.52,8.52,0,0,1-2.88,1.08,5.14,5.14,0,0,0-1.5-1A4.23,4.23,0,0,0,15.21,0,4.38,4.38,0,0,0,13,.6a4.71,4.71,0,0,0-1.64,1.68,4.13,4.13,0,0,0-.6,2.23,4,4,0,0,0,.09,1,12,12,0,0,1-5.2-1.37A12,12,0,0,1,1.55.82,4.46,4.46,0,0,0,.9,3.09a4.06,4.06,0,0,0,.56,2.15A4.45,4.45,0,0,0,2.92,6.88a3.69,3.69,0,0,1-2-.61v.09a4.33,4.33,0,0,0,1,2.84,4.42,4.42,0,0,0,2.58,1.59,6.42,6.42,0,0,1-1.2.12,5.63,5.63,0,0,1-.82,0A4.34,4.34,0,0,0,4,13.11,4.12,4.12,0,0,0,6.7,14,9,9,0,0,1,1.07,15.9a8.46,8.46,0,0,1-1.07,0,12.22,12.22,0,0,0,6.92,2,12.3,12.3,0,0,0,7-2A12.24,12.24,0,0,0,18.26,11a12.81,12.81,0,0,0,1.51-6C19.77,4.77,19.72,4.6,19.72,4.47Z"/></svg>