<svg xmlns="http://www.w3.org/2000/svg" viewBox="0 0 20 12.01">

    <path
        d="M17.8,8.42a17.22,17.22,0,0,1,2,2.45l0,0a.74.74,0,0,1,.12.67c-.13.28-.59.41-.75.43H16.36a2,2,0,0,1-1.12-.42,7,7,0,0,1-1.14-1.21c-.55-.67-1-1.26-1.52-1.26l-.18,0c-.37.13-.83.67-.83,2.14A.68.68,0,0,1,11,12H9.67A6.92,6.92,0,0,1,4.85,9.56C2.32,6.77.06,1.17,0,1.12-.1.76.19.56.51.56H3.4A.61.61,0,0,1,4,1a20.1,20.1,0,0,0,1.1,2.4C6.1,5.28,6.72,6,7.21,6A.53.53,0,0,0,7.48,6C8.12,5.59,8,3.18,8,2.68a3.37,3.37,0,0,0-.33-1.56A1.43,1.43,0,0,0,6.76.6,1.08,1.08,0,0,1,7.14.26a5.1,5.1,0,0,1,2-.26h.44A4.72,4.72,0,0,1,11,.15c.63.16.64.59.58,2,0,.42,0,.89,0,1.44V4c0,.75-.05,1.59.45,1.93a.36.36,0,0,0,.22.07c.17,0,.7,0,2.11-2.55A18.54,18.54,0,0,0,15.46.91a.73.73,0,0,1,.22-.27.46.46,0,0,1,.23-.06h3.4c.37,0,.62.06.67.2s0,1-1.57,3.17l-.69,1C16.31,6.85,16.31,7,17.8,8.42Z" />
</svg>