<svg id="Layer_1" data-name="Layer 1" xmlns="http://www.w3.org/2000/svg" viewBox="0 0 22.75 22.75"><defs><style>.cls-1{fill:#68bb5a;}</style></defs><path class="cls-1" d="M19.35,3.3A13.07,13.07,0,0,1,21.84,7a10.36,10.36,0,0,1,.91,4.26,11,11,0,0,1-1.57,5.64A11.49,11.49,0,0,1,17,21a10.85,10.85,0,0,1-5.63,1.53A11,11,0,0,1,6,21.18L0,22.75l1.63-5.84A10.91,10.91,0,0,1,.1,11.27,10.85,10.85,0,0,1,1.63,5.64,11.35,11.35,0,0,1,5.74,1.52,10.94,10.94,0,0,1,11.38,0a11.18,11.18,0,0,1,4.26.86A14,14,0,0,1,19.35,3.3Zm-8,17.37A9.19,9.19,0,0,0,16.1,19.4,9.61,9.61,0,0,0,19.55,16a9,9,0,0,0,1.32-4.73,8.72,8.72,0,0,0-.76-3.55,10.51,10.51,0,0,0-2.13-3,10.33,10.33,0,0,0-3.05-2.08,9.35,9.35,0,0,0-8.28.56A9.61,9.61,0,0,0,3.25,6.6,8.89,8.89,0,0,0,2,11.27a8.71,8.71,0,0,0,1.47,5l.21.36-1,3.45,3.56-.92.35.21A8.72,8.72,0,0,0,11.38,20.67Zm5.12-7.06.16.1a1.89,1.89,0,0,1,.4.25v.51a2.74,2.74,0,0,1-.2.87,2.2,2.2,0,0,1-.81.86,1.93,1.93,0,0,1-1.07.46,3.16,3.16,0,0,1-1.37,0,8.7,8.7,0,0,1-2-.71,11.3,11.3,0,0,1-4.72-4.17l-.11-.1A4.86,4.86,0,0,1,5.64,8.79,3.26,3.26,0,0,1,6.55,6.5l0,0a1.1,1.1,0,0,1,.76-.36H8a.65.65,0,0,1,.31.11c.1,0,.15.15.25.35l.86,2.08a.61.61,0,0,1,.06.51,4.35,4.35,0,0,1-.66.91c-.16.16-.26.26-.26.36s0,.15.1.25a5.87,5.87,0,0,0,1.68,2.09A9.87,9.87,0,0,0,12.44,14c.26.15.46.15.61-.06L14,12.85c.06-.1.16-.21.26-.21s.2.06.35.06S15.49,13.1,16.5,13.61Z"/></svg>