<svg xmlns="http://www.w3.org/2000/svg" viewBox="0 0 28 28" width="28" height="28">
    <circle cx="14" cy="14" r="14" fill="#fff" />
    <path fill="#2e2a25" d="M14 28a14 14 0 1114-14 14 14 0 01-14 14zm0-26a12 12 0 1012 12A12 12 0 0014 2z" />
    <path fill="#2e2a25"
        d="M6.22 15.73a1.37 1.37 0 001.48 1.39h5.47V16l-.36-.45H8.24a.43.43 0 01-.44-.45v-2.66a.43.43 0 01.44-.44h4.59l.34-.38v-1.25H7.7a1.37 1.37 0 00-1.48 1.39v4zM20 17.12h1.62v-.56L20.27 15h.19a1.39 1.39 0 001.32-1.39v-1.85a1.39 1.39 0 00-1.48-1.39h-5.81v6.75h1.57V15h2.2zm-4-5.13h3.7a.43.43 0 01.44.45v.47a.43.43 0 01-.44.44H16z" />
</svg>